<?xml version="1.0" encoding="UTF-8" ?>
<!DOCTYPE svg PUBLIC "-//W3C//DTD SVG 1.1//EN" "http://www.w3.org/Graphics/SVG/1.1/DTD/svg11.dtd">
<svg width="353pt" height="190pt" viewBox="0 0 353 190" version="1.1" xmlns="http://www.w3.org/2000/svg">
<g id="#020100ff">
<path fill="#020100" opacity="1.00" d=" M 20.31 20.68 C 60.81 20.71 101.32 20.77 141.82 20.65 C 141.99 63.98 141.87 107.32 141.89 150.66 C 131.65 150.63 121.42 150.54 111.18 150.74 C 110.80 150.54 110.03 150.14 109.65 149.94 L 108.77 149.35 C 106.41 152.37 104.84 156.01 101.79 158.46 C 98.67 160.97 95.58 164.02 91.55 164.90 C 94.40 162.01 98.54 159.69 99.76 155.60 L 99.10 154.33 C 99.42 152.39 99.78 150.46 100.02 148.51 C 98.62 151.36 97.81 154.68 95.31 156.83 C 91.07 160.65 87.24 165.06 85.02 170.38 C 81.89 168.29 78.22 167.34 74.79 165.89 C 72.31 165.00 71.50 162.21 70.85 159.92 C 69.98 158.54 71.47 157.32 72.73 157.26 C 73.18 159.18 73.12 161.23 73.87 163.07 C 76.35 165.86 80.36 165.57 83.75 165.73 C 83.86 165.40 84.08 164.73 84.19 164.40 C 81.00 165.25 77.80 164.16 74.74 163.29 C 74.04 159.81 73.89 156.21 72.71 152.83 C 72.61 153.39 72.42 154.51 72.33 155.07 C 71.73 155.86 71.16 156.68 70.62 157.51 C 70.10 156.63 69.05 154.88 68.53 154.01 C 68.72 156.63 69.10 159.24 69.43 161.85 C 66.08 157.61 61.31 155.04 57.06 151.87 C 53.21 149.16 51.59 144.59 49.35 140.65 C 49.46 142.53 49.63 144.40 49.76 146.28 C 46.22 140.90 44.41 134.51 44.63 128.07 C 44.06 128.22 42.92 128.53 42.35 128.69 C 41.17 120.27 45.08 112.31 44.78 103.93 C 44.66 97.80 45.05 91.65 44.46 85.54 C 43.50 79.64 41.71 73.91 40.09 68.16 C 34.87 65.90 32.38 60.20 33.37 54.73 C 34.58 57.43 35.51 60.46 38.02 62.28 C 40.29 64.44 43.57 64.79 46.55 65.08 C 41.56 62.17 35.90 58.19 35.85 51.76 C 35.18 45.03 39.59 39.27 44.90 35.69 C 43.71 39.93 42.55 44.73 45.26 48.68 C 49.90 55.85 57.98 60.94 66.46 61.93 C 62.31 59.77 57.57 58.26 54.75 54.26 C 58.59 55.98 62.33 58.04 66.49 58.89 C 65.13 56.92 62.72 56.36 60.71 55.33 C 55.95 53.03 51.69 49.24 49.69 44.26 C 48.52 41.07 49.72 37.72 51.65 35.13 C 51.48 35.06 51.13 34.91 50.96 34.84 C 49.03 35.22 48.77 37.56 48.13 39.09 C 46.58 43.15 48.81 47.15 49.92 50.99 C 48.36 49.52 46.94 47.88 46.06 45.90 C 47.15 43.32 46.96 40.48 46.13 37.86 C 47.46 36.20 48.90 34.63 50.39 33.11 C 51.19 33.26 51.94 33.53 52.65 33.91 C 58.07 29.24 65.39 28.84 72.19 29.31 C 71.61 28.72 70.46 27.54 69.89 26.95 C 74.76 28.01 79.26 30.44 84.27 30.87 C 81.81 29.59 79.24 28.55 76.77 27.31 C 87.15 26.85 96.35 32.81 105.43 37.04 C 102.35 33.33 97.55 31.95 93.78 29.12 C 100.25 30.38 106.19 33.32 111.82 36.63 C 111.17 35.68 109.87 33.77 109.22 32.82 C 115.06 35.63 120.79 39.67 123.31 45.88 C 124.13 48.88 123.72 52.03 123.58 55.09 C 127.94 55.74 131.83 59.40 131.48 64.04 C 130.79 74.09 128.85 84.02 127.28 93.97 C 126.32 92.69 125.58 91.14 124.13 90.35 C 119.66 91.76 119.16 97.12 118.60 101.05 C 117.51 110.41 121.19 119.45 120.77 128.82 C 120.24 128.61 119.17 128.18 118.63 127.96 C 119.04 134.40 117.26 140.88 113.35 146.03 C 113.77 143.71 114.24 141.39 114.58 139.06 C 112.99 141.93 110.69 145.43 111.20 148.76 C 112.08 148.52 112.84 148.01 113.46 147.24 C 121.78 147.32 130.10 147.26 138.43 147.29 C 138.62 106.32 138.46 65.34 138.50 24.37 C 119.34 24.26 100.18 24.29 81.01 24.39 C 76.34 24.22 71.66 23.85 66.99 24.32 C 52.62 24.50 38.23 24.00 23.86 24.52 C 24.43 31.01 23.87 37.51 23.99 44.01 C 23.99 73.34 24.00 102.67 23.98 132.01 C 24.07 137.07 24.28 142.15 23.91 147.21 C 32.66 147.16 41.42 147.57 50.16 147.05 C 51.21 148.19 52.26 149.33 53.31 150.48 C 42.29 150.75 31.27 150.59 20.25 150.62 C 20.33 107.31 20.20 63.99 20.31 20.68 M 58.05 37.84 C 58.99 40.64 60.67 43.23 63.22 44.81 C 69.94 49.10 77.77 51.09 85.30 53.45 C 83.96 52.11 82.47 50.89 80.72 50.14 C 72.93 46.52 64.11 44.33 58.05 37.84 M 79.65 39.26 C 83.07 41.75 87.21 42.93 90.76 45.21 C 94.62 47.32 97.84 50.32 101.27 53.01 C 96.96 45.19 88.10 40.93 79.65 39.26 M 98.27 42.81 C 98.39 44.35 100.29 46.05 101.81 46.00 C 101.96 44.42 99.83 42.39 98.27 42.81 M 77.41 43.48 C 82.67 46.35 88.03 49.02 93.27 51.94 C 89.54 47.21 83.27 44.34 77.41 43.48 M 56.75 45.29 C 60.18 50.12 65.82 52.51 70.99 54.98 C 75.73 56.87 80.46 58.86 85.40 60.17 C 76.75 53.64 65.61 51.56 56.75 45.29 M 54.08 62.74 C 51.18 59.66 46.96 58.28 43.93 55.30 C 46.04 59.16 49.98 61.48 54.08 62.74 M 104.96 67.51 C 93.61 67.87 82.40 70.21 71.03 70.27 C 65.96 70.14 60.95 69.39 55.92 68.91 C 52.12 69.06 49.62 72.58 49.12 76.08 C 47.95 82.32 47.18 88.66 46.69 94.99 C 46.13 100.78 48.95 107.02 54.30 109.63 C 55.96 110.72 58.63 110.94 58.90 113.35 C 62.74 111.25 66.52 108.21 71.09 108.21 C 73.18 108.07 74.56 109.80 76.18 110.81 C 77.77 109.95 79.05 108.26 81.00 108.26 C 86.28 107.97 89.84 113.13 94.80 113.82 C 100.85 112.63 106.83 109.55 110.72 104.68 C 116.24 97.47 113.70 86.29 106.58 81.10 C 107.82 78.76 108.91 76.35 109.88 73.90 C 109.06 71.88 107.40 69.96 107.42 67.73 C 108.13 67.45 109.55 66.90 110.26 66.63 C 111.35 64.71 112.96 63.26 115.03 62.44 C 114.56 62.13 113.63 61.51 113.17 61.19 C 109.90 62.55 108.11 66.12 104.96 67.51 M 63.96 122.38 C 67.25 122.63 71.41 122.24 72.55 118.52 C 71.34 118.93 70.13 119.34 68.92 119.77 C 68.78 119.28 68.51 118.31 68.37 117.82 C 66.51 118.92 64.74 120.26 63.96 122.38 M 79.94 117.94 C 80.17 122.07 84.92 122.14 87.94 122.46 C 87.50 120.63 86.30 119.27 84.89 118.11 C 84.46 118.55 83.60 119.42 83.17 119.86 C 82.36 119.38 80.75 118.42 79.94 117.94 M 110.20 119.68 C 110.38 123.93 110.74 128.19 111.72 132.34 C 111.83 129.54 111.68 126.74 111.58 123.94 C 114.16 122.59 111.36 120.84 110.20 119.68 M 57.44 132.97 C 57.26 135.13 57.18 137.31 57.07 139.47 C 56.37 138.80 54.97 137.46 54.28 136.79 C 54.87 139.07 55.55 141.34 56.24 143.60 C 56.48 142.97 56.96 141.71 57.20 141.08 C 57.73 141.27 58.81 141.66 59.34 141.85 C 58.76 138.88 58.22 135.90 57.44 132.97 Z" />
<path fill="#020100" opacity="1.00" d=" M 197.26 37.67 C 194.72 34.23 196.80 28.75 200.85 27.63 C 203.17 26.80 205.69 27.36 207.83 28.44 C 207.72 29.41 207.53 30.37 207.26 31.31 C 206.13 30.72 205.01 30.12 203.90 29.51 C 201.93 30.25 199.12 31.31 199.70 33.98 C 199.22 38.29 204.66 38.52 207.21 36.47 C 207.46 37.40 208.95 38.75 207.69 39.52 C 204.31 41.20 199.55 41.03 197.26 37.67 Z" />
<path fill="#020100" opacity="1.00" d=" M 219.40 27.52 C 223.85 26.14 229.50 29.79 228.41 34.79 C 227.99 41.62 216.69 42.66 214.79 36.25 C 213.10 32.70 215.76 28.39 219.40 27.52 M 217.08 33.87 C 217.83 36.59 221.07 39.32 223.67 36.98 C 226.60 35.29 225.21 30.28 221.98 30.05 C 219.38 29.25 218.38 32.31 217.08 33.87 Z" />
<path fill="#020100" opacity="1.00" d=" M 236.12 27.42 C 239.70 27.76 243.96 26.51 246.89 29.19 C 248.71 31.42 247.21 34.13 245.38 35.77 C 246.47 37.26 247.55 38.77 248.58 40.30 C 244.07 41.69 243.34 36.10 239.61 35.34 C 239.54 36.98 239.51 38.62 239.47 40.25 C 238.36 40.29 237.24 40.32 236.13 40.36 C 235.93 36.05 235.93 31.73 236.12 27.42 M 239.54 29.80 C 239.53 30.79 239.53 32.76 239.53 33.75 C 241.44 33.57 243.27 33.00 244.95 32.06 C 243.71 30.17 241.64 29.81 239.54 29.80 Z" />
<path fill="#020100" opacity="1.00" d=" M 254.36 27.49 C 258.12 27.52 261.89 27.52 265.65 27.48 C 265.69 28.15 265.76 29.48 265.80 30.15 C 264.35 30.20 262.90 30.24 261.46 30.27 C 261.50 33.60 261.50 36.92 261.49 40.25 C 260.43 40.26 259.37 40.28 258.32 40.30 C 258.25 37.15 258.40 33.98 258.17 30.83 C 257.16 29.76 255.40 30.11 254.10 29.68 C 254.16 29.13 254.29 28.03 254.36 27.49 Z" />
<path fill="#020100" opacity="1.00" d=" M 273.09 27.45 C 276.54 27.51 279.99 27.52 283.45 27.51 C 283.50 28.10 283.60 29.29 283.65 29.88 C 281.28 29.94 278.91 29.92 276.55 30.10 C 276.41 30.66 276.14 31.78 276.00 32.34 C 278.38 32.84 282.59 31.44 283.26 34.83 C 281.00 34.93 278.74 34.94 276.49 35.11 C 276.38 35.77 276.15 37.09 276.04 37.75 C 278.60 37.75 281.16 37.73 283.73 37.65 C 283.71 38.53 283.70 39.40 283.69 40.28 C 280.17 40.23 276.65 40.24 273.13 40.32 C 272.93 36.03 272.95 31.74 273.09 27.45 Z" />
<path fill="#020100" opacity="1.00" d=" M 310.45 27.47 C 311.62 27.49 312.79 27.51 313.96 27.53 C 311.24 31.37 307.88 35.25 308.59 40.32 C 307.59 40.30 306.60 40.27 305.61 40.24 C 305.66 38.52 305.71 36.79 305.74 35.06 C 303.86 32.60 302.12 30.04 300.48 27.42 C 304.11 26.46 305.75 29.65 307.33 32.24 C 308.36 30.64 309.40 29.05 310.45 27.47 Z" />
<path fill="#020100" opacity="1.00" d=" M 45.70 39.90 C 46.69 40.89 46.68 43.13 45.68 44.12 C 44.82 42.71 44.82 41.31 45.70 39.90 Z" />
<path fill="#020100" opacity="1.00" d=" M 168.07 49.26 C 174.66 49.47 181.27 48.95 187.84 49.56 C 191.75 50.01 196.55 52.47 196.31 57.04 C 196.91 60.57 194.56 63.45 191.70 65.15 C 193.13 66.07 194.71 66.83 195.94 68.05 C 198.92 71.69 198.03 77.86 194.01 80.39 C 191.69 81.98 188.80 82.53 186.02 82.51 C 180.04 82.55 174.05 82.44 168.07 82.55 C 168.92 71.48 168.15 60.36 168.07 49.26 M 178.00 55.24 C 178.00 57.75 178.00 60.27 178.00 62.79 C 180.30 62.64 182.77 63.10 184.93 62.12 C 187.41 60.97 187.41 56.80 184.88 55.71 C 182.68 54.91 180.28 55.34 178.00 55.24 M 178.00 68.48 C 178.00 71.24 178.00 74.01 178.00 76.78 C 180.61 76.70 183.36 77.00 185.83 75.97 C 188.83 74.55 188.16 69.52 184.99 68.85 C 182.70 68.32 180.33 68.52 178.00 68.48 Z" />
<path fill="#020100" opacity="1.00" d=" M 212.58 49.30 C 216.25 49.11 219.93 49.15 223.61 49.37 C 227.97 60.47 232.70 71.43 237.05 82.54 C 233.60 82.51 230.16 82.50 226.72 82.49 C 225.78 80.02 224.81 77.55 223.75 75.13 C 219.37 75.33 214.97 75.53 210.59 75.16 C 209.57 77.61 208.57 80.07 207.62 82.55 C 204.83 82.51 202.04 82.50 199.25 82.46 C 203.67 71.40 208.24 60.40 212.58 49.30 M 217.12 58.11 C 215.55 61.95 214.13 65.85 212.60 69.71 C 215.62 69.75 218.64 69.76 221.66 69.73 C 220.24 65.82 219.21 61.73 217.12 58.11 Z" />
<path fill="#020100" opacity="1.00" d=" M 240.71 49.30 C 246.18 49.25 251.64 49.17 257.11 49.28 C 261.00 49.37 265.15 50.15 268.14 52.82 C 271.40 56.25 272.05 62.29 268.83 65.96 C 267.46 67.45 265.70 68.51 264.07 69.70 C 267.47 73.93 270.51 78.45 274.08 82.54 C 270.22 82.50 266.36 82.49 262.50 82.52 C 260.27 79.06 258.20 75.51 256.10 71.97 C 254.97 69.91 252.17 70.79 250.29 70.33 C 250.21 74.41 250.18 78.50 250.46 82.57 C 247.18 82.49 243.91 82.49 240.64 82.52 C 240.86 71.45 240.73 60.37 240.71 49.30 M 250.26 55.21 C 250.25 58.39 250.25 61.58 250.25 64.76 C 253.47 64.74 257.07 65.31 259.91 63.40 C 261.82 61.57 261.68 58.16 259.76 56.38 C 256.83 54.87 253.43 55.32 250.26 55.21 Z" />
<path fill="#020100" opacity="1.00" d=" M 277.04 49.22 C 284.64 49.71 292.53 48.17 299.93 50.39 C 305.21 51.61 307.38 59.41 303.15 62.96 C 302.58 63.86 301.13 64.43 301.18 65.59 C 303.10 67.02 305.44 68.25 306.11 70.76 C 307.97 76.00 303.43 81.71 298.11 82.17 C 291.01 82.91 283.83 82.32 276.71 82.48 C 277.37 71.41 276.79 60.30 277.04 49.22 M 286.22 55.22 C 286.25 57.72 286.30 60.21 286.39 62.71 C 288.70 62.69 291.08 63.01 293.34 62.38 C 296.15 61.35 296.34 56.59 293.36 55.62 C 291.03 55.02 288.60 55.29 286.22 55.22 M 286.21 68.36 C 286.20 71.15 286.21 73.94 286.25 76.72 C 288.78 76.58 291.36 76.75 293.86 76.20 C 296.83 75.42 297.34 70.73 294.67 69.29 C 292.09 67.89 289.01 68.51 286.21 68.36 Z" />
<path fill="#020100" opacity="1.00" d=" M 320.13 49.26 C 323.76 49.26 327.40 49.27 331.04 49.20 C 335.91 60.19 339.93 71.54 344.85 82.52 C 341.34 82.50 337.84 82.50 334.34 82.54 C 333.32 80.09 332.30 77.65 331.29 75.20 C 326.83 75.25 322.36 75.18 317.91 75.50 C 317.09 77.83 316.27 80.16 315.44 82.49 C 312.59 82.50 309.73 82.52 306.88 82.54 C 311.14 71.39 315.50 60.26 320.13 49.26 M 324.50 57.69 C 322.96 61.64 321.57 65.64 320.21 69.66 C 323.20 69.75 326.18 69.76 329.16 69.73 C 327.82 65.64 326.47 61.53 324.50 57.69 Z" />
<path fill="#020100" opacity="1.00" d=" M 214.66 90.62 C 215.65 89.66 216.31 87.57 218.00 87.94 C 221.49 89.22 223.58 92.77 226.98 94.13 C 230.97 94.47 235.00 94.15 239.01 94.27 C 241.91 94.18 245.00 94.61 247.71 93.31 C 249.43 93.27 251.16 93.25 252.89 93.23 C 253.53 91.38 254.43 89.64 255.54 88.04 C 256.12 89.71 256.69 91.39 257.24 93.07 C 259.27 93.23 261.31 93.37 263.35 93.52 C 261.93 94.83 260.49 96.11 259.06 97.39 C 259.42 99.24 259.80 101.09 260.18 102.94 C 258.49 101.97 256.81 100.99 255.12 100.04 C 253.42 101.02 251.74 102.00 250.06 102.99 C 250.51 101.25 250.96 99.51 251.42 97.77 C 250.56 96.71 249.73 95.64 248.93 94.54 C 248.40 95.16 247.89 95.79 247.39 96.43 C 241.66 96.61 235.93 96.39 230.20 96.60 C 241.07 105.77 252.68 114.05 263.80 122.93 C 270.21 120.50 276.29 117.10 281.29 112.38 C 284.01 109.56 282.11 105.43 283.21 102.06 C 285.17 96.33 292.15 92.84 297.87 95.17 C 302.06 96.48 305.17 100.55 305.04 105.00 C 305.39 108.64 302.95 111.62 300.90 114.33 C 304.60 114.39 308.76 114.12 311.72 116.84 C 316.22 120.57 316.52 128.19 312.31 132.26 C 309.20 135.66 304.09 136.20 299.85 135.06 C 296.94 134.19 294.96 131.30 292.00 130.78 C 287.46 131.31 283.01 132.46 278.59 133.61 C 280.60 133.88 282.57 134.52 284.14 135.83 C 288.87 139.46 293.64 143.04 298.48 146.53 C 301.65 148.71 302.94 153.08 301.60 156.67 C 299.79 161.44 293.75 163.64 289.16 161.61 C 284.44 159.47 280.92 155.49 276.64 152.66 C 270.98 148.84 265.93 144.18 260.15 140.54 C 260.31 139.97 260.63 138.82 260.79 138.24 C 247.47 144.95 234.74 152.79 221.36 159.39 C 217.98 161.08 214.75 163.15 211.06 164.13 C 217.18 157.93 224.35 152.91 230.58 146.84 C 221.95 149.51 213.67 153.29 204.89 155.48 C 206.38 154.08 208.04 152.88 209.86 151.93 C 220.86 145.78 232.05 139.94 243.52 134.71 C 245.01 133.84 247.31 133.41 247.40 131.24 L 245.59 131.60 C 244.18 130.98 243.18 129.82 242.01 128.88 C 241.16 128.50 240.39 128.01 239.70 127.42 C 240.58 125.99 241.56 124.63 242.47 123.22 C 241.21 124.41 240.02 125.65 238.83 126.90 C 236.06 124.38 232.59 122.63 230.31 119.60 C 229.75 119.50 228.64 119.30 228.08 119.21 C 228.71 117.75 229.44 116.34 230.11 114.91 C 228.65 116.16 226.69 120.05 225.35 116.11 C 225.43 115.33 225.84 114.73 226.57 114.31 C 226.61 113.83 226.69 112.86 226.73 112.37 C 225.93 112.73 225.15 113.12 224.38 113.52 C 224.21 114.05 223.87 115.10 223.70 115.63 C 223.60 115.56 223.40 115.41 223.30 115.34 C 221.22 113.25 218.63 111.79 216.28 110.03 C 216.98 109.00 217.68 107.97 218.38 106.93 C 217.08 107.92 215.80 109.06 214.12 109.30 C 214.72 107.81 215.38 106.34 216.02 104.86 C 214.97 105.99 213.94 107.13 212.90 108.27 C 212.67 107.80 212.20 106.85 211.97 106.37 C 213.31 104.19 214.95 102.22 216.19 99.97 C 214.31 101.91 212.63 104.04 210.97 106.16 C 209.61 105.06 208.18 104.04 206.89 102.85 C 208.70 98.34 212.03 94.66 214.66 90.62 M 290.22 98.14 C 284.78 100.49 284.07 108.79 289.20 111.89 C 294.27 115.78 302.37 111.33 302.02 105.02 C 302.29 99.27 295.08 95.16 290.22 98.14 M 223.98 107.37 C 223.47 108.77 223.93 109.20 225.37 108.64 C 225.87 107.25 225.41 106.82 223.98 107.37 M 271.63 128.71 C 278.30 128.59 285.94 129.89 291.66 125.62 C 293.72 122.30 294.56 118.18 297.87 115.69 C 293.13 116.97 288.55 114.49 283.91 114.97 C 278.35 117.88 274.53 123.30 271.63 128.71 M 303.08 117.04 C 297.32 117.87 293.88 125.61 298.10 130.06 C 301.86 135.16 310.62 132.97 312.02 126.97 C 313.87 121.56 308.45 116.14 303.08 117.04 M 255.13 130.13 C 245.92 136.43 237.01 143.16 228.38 150.22 C 226.36 151.86 224.18 153.40 222.77 155.65 C 228.04 153.65 232.46 150.08 237.38 147.40 C 242.95 143.90 248.76 140.80 254.23 137.15 C 257.40 135.45 257.15 130.97 260.27 129.24 C 263.51 127.04 267.06 125.31 270.18 122.92 C 264.48 123.59 259.80 127.12 255.13 130.13 M 260.19 131.16 C 259.69 132.79 260.26 133.33 261.90 132.77 C 262.40 131.15 261.83 130.61 260.19 131.16 Z" />
<path fill="#020100" opacity="1.00" d=" M 167.64 94.78 C 181.46 94.17 195.31 94.27 209.14 94.24 C 208.89 94.80 208.38 95.94 208.12 96.50 C 196.77 96.32 185.42 96.40 174.09 95.89 C 171.90 95.85 169.51 96.22 167.64 94.78 Z" />
<path fill="#020100" opacity="1.00" d=" M 264.00 94.05 C 271.13 94.45 278.27 94.14 285.40 94.28 C 285.11 94.79 284.53 95.81 284.25 96.32 C 277.20 96.82 270.11 96.26 263.06 96.66 C 263.37 95.79 263.68 94.92 264.00 94.05 Z" />
<path fill="#020100" opacity="1.00" d=" M 302.18 94.27 C 311.44 94.28 320.70 94.10 329.96 94.48 C 335.37 94.36 340.79 94.56 346.13 95.54 C 340.09 96.18 334.02 95.38 327.98 96.11 C 319.65 96.40 311.31 96.15 302.98 96.27 C 302.78 95.77 302.38 94.77 302.18 94.27 Z" />
</g>
</svg>
