<?xml version="1.0" encoding="UTF-8" ?>
<!DOCTYPE svg PUBLIC "-//W3C//DTD SVG 1.1//EN" "http://www.w3.org/Graphics/SVG/1.1/DTD/svg11.dtd">
<svg width="353pt" height="190pt" viewBox="0 0 353 190" version="1.1" xmlns="http://www.w3.org/2000/svg">
<g id="#0d0905ff">
<path fill="#0d0905" opacity="1.00" d=" M 195.27 31.10 C 195.85 25.98 202.73 24.32 206.16 27.83 C 205.84 28.38 205.20 29.47 204.88 30.02 C 203.34 29.64 201.61 28.03 200.06 29.11 C 198.02 30.01 197.93 33.05 199.43 34.47 C 201.00 37.08 205.42 32.03 205.79 35.92 C 202.56 40.62 194.01 36.69 195.27 31.10 Z" />
<path fill="#0d0905" opacity="1.00" d=" M 216.31 26.43 C 220.55 24.36 225.96 28.38 224.95 33.07 C 224.24 38.23 216.46 39.72 213.65 35.44 C 211.36 32.43 212.96 27.86 216.31 26.43 M 217.24 29.21 C 214.19 31.02 216.42 36.61 219.93 35.05 C 223.95 33.80 221.00 26.65 217.24 29.21 Z" />
<path fill="#0d0905" opacity="1.00" d=" M 232.36 26.09 C 235.01 26.10 237.75 25.81 240.31 26.63 C 242.27 27.73 242.12 30.13 242.18 32.05 C 241.72 32.51 240.78 33.44 240.31 33.90 C 241.24 35.11 242.16 36.33 243.09 37.56 C 242.09 37.50 240.08 37.39 239.07 37.34 C 238.34 35.88 237.45 34.46 235.93 33.71 C 235.76 34.97 235.63 36.23 235.52 37.50 C 234.48 37.49 233.44 37.49 232.41 37.49 C 232.41 33.69 232.41 29.89 232.36 26.09 M 235.62 28.45 C 235.51 29.57 235.39 30.70 235.27 31.82 C 237.03 31.73 239.14 32.02 239.79 29.87 C 238.46 29.21 237.07 28.72 235.62 28.45 Z" />
<path fill="#0d0905" opacity="1.00" d=" M 249.17 26.08 C 252.39 26.04 255.61 26.05 258.84 26.10 C 258.87 26.78 258.92 28.14 258.95 28.82 C 257.79 28.93 256.64 29.05 255.50 29.18 C 255.59 31.95 255.61 34.73 255.59 37.51 C 254.86 37.50 253.39 37.49 252.66 37.48 C 252.66 34.67 252.67 31.87 252.69 29.07 C 251.49 28.99 250.30 28.91 249.11 28.83 C 249.12 28.14 249.15 26.77 249.17 26.08 Z" />
<path fill="#0d0905" opacity="1.00" d=" M 266.20 26.08 C 269.11 26.04 272.01 26.05 274.92 26.15 C 274.89 26.82 274.83 28.14 274.80 28.81 C 272.83 28.89 270.86 29.03 268.90 29.15 C 269.15 31.94 272.58 30.39 274.41 30.83 C 274.19 31.45 273.75 32.70 273.53 33.33 C 272.08 33.33 270.63 33.33 269.18 33.33 L 269.19 35.21 C 271.08 35.20 272.98 35.20 274.88 35.19 C 274.84 35.76 274.76 36.91 274.72 37.48 C 271.91 37.60 269.08 37.66 266.27 37.54 C 266.23 33.72 266.23 29.90 266.20 26.08 Z" />
<path fill="#0d0905" opacity="1.00" d=" M 293.71 26.11 C 296.85 26.24 300.79 25.22 303.17 27.90 C 305.40 29.76 305.75 33.49 303.63 35.56 C 301.29 38.69 296.98 37.26 293.69 37.43 C 293.68 33.66 293.68 29.89 293.71 26.11 M 296.71 28.81 C 296.69 30.99 296.68 33.17 296.68 35.36 C 298.81 35.36 301.96 34.81 301.81 32.02 C 302.04 29.14 298.82 28.79 296.71 28.81 Z" />
<path fill="#0d0905" opacity="1.00" d=" M 312.14 26.08 C 315.05 26.04 317.96 26.05 320.87 26.14 C 320.87 26.83 320.87 28.19 320.87 28.87 C 318.98 29.29 315.86 27.84 315.14 30.37 C 316.83 30.50 318.52 30.59 320.21 30.68 C 320.19 31.31 320.15 32.58 320.13 33.21 C 318.46 33.29 316.79 33.38 315.13 33.49 C 315.74 36.35 319.13 34.87 321.22 35.16 C 321.14 35.76 320.98 36.96 320.91 37.55 C 318.01 37.48 315.12 37.48 312.22 37.53 C 312.16 33.71 312.17 29.90 312.14 26.08 Z" />
<path fill="#0d0905" opacity="1.00" d=" M 10.54 27.75 C 50.70 27.75 90.87 27.75 131.03 27.75 C 134.60 27.74 138.17 27.66 141.73 27.93 C 141.78 72.66 141.71 117.39 141.77 162.13 C 98.03 162.42 54.29 162.16 10.55 162.26 C 10.46 117.42 10.48 72.58 10.54 27.75 M 15.03 33.27 C 14.97 74.62 15.64 115.97 15.03 157.32 C 55.66 157.29 96.29 157.29 136.92 157.32 C 137.06 115.96 137.04 74.60 136.93 33.25 C 96.30 33.34 55.66 33.28 15.03 33.27 Z" />
<path fill="#0d0905" opacity="1.00" d=" M 72.15 36.24 C 81.52 36.59 90.13 40.49 98.10 45.12 C 95.93 42.36 92.65 40.78 90.47 38.06 C 97.27 40.67 103.68 44.20 109.21 48.97 C 108.30 47.50 107.34 46.05 106.35 44.63 C 114.72 48.94 121.44 58.18 119.20 67.96 C 126.63 69.77 130.02 77.99 129.80 85.01 C 129.53 95.62 127.13 106.04 125.10 116.42 C 124.09 115.90 123.08 115.38 122.09 114.85 C 116.23 119.31 114.82 126.99 111.45 133.16 C 111.43 126.12 113.45 118.52 109.99 111.97 C 108.17 108.06 104.78 105.28 102.35 101.80 C 104.29 101.31 105.93 102.63 107.60 103.30 C 106.48 101.85 105.38 100.39 104.24 98.97 C 104.25 95.00 104.30 91.04 104.19 87.08 C 103.40 86.12 102.61 85.16 101.82 84.20 C 103.50 83.86 105.01 83.17 106.38 82.15 C 106.29 82.80 106.12 84.08 106.03 84.73 C 106.81 84.72 108.38 84.69 109.16 84.68 C 108.25 83.72 107.33 82.78 106.43 81.82 C 110.81 79.89 114.58 76.50 116.43 72.03 C 109.43 79.31 100.03 83.91 90.14 85.69 C 82.15 87.03 74.12 88.81 65.97 88.25 C 61.60 87.87 57.28 87.02 52.93 86.43 C 49.09 85.80 45.35 88.52 44.12 92.09 C 39.72 103.61 40.92 116.21 39.78 128.23 C 37.47 115.85 35.62 103.36 32.77 91.09 C 31.48 85.12 25.70 81.64 23.86 75.95 C 26.05 77.77 27.87 80.12 30.50 81.34 C 32.91 82.45 35.53 82.96 38.09 83.55 C 37.85 83.17 37.37 82.40 37.13 82.02 C 29.65 78.71 24.71 69.85 26.84 61.80 C 28.38 54.30 34.35 48.52 40.75 44.80 C 37.26 49.42 36.88 55.65 39.19 60.87 C 42.54 69.16 50.83 74.04 58.92 76.80 C 61.30 77.72 64.11 77.74 66.03 79.61 C 65.66 79.07 65.29 78.53 64.92 77.99 C 57.61 75.47 51.21 70.60 46.44 64.57 C 42.46 59.66 40.94 52.47 43.50 46.57 C 44.66 43.68 47.25 41.79 49.71 40.06 C 49.87 40.74 50.17 42.09 50.32 42.77 C 50.85 42.19 51.36 41.60 51.84 40.98 C 57.78 37.44 65.42 37.12 71.67 40.05 C 73.87 41.00 75.52 43.18 77.98 43.50 C 77.52 43.22 76.60 42.66 76.14 42.38 C 74.95 40.25 73.62 38.19 72.15 36.24 M 85.00 44.14 C 88.84 46.10 92.72 48.36 95.51 51.72 C 95.49 51.06 95.44 49.76 95.41 49.10 C 99.97 50.79 103.55 54.09 107.15 57.22 C 104.78 53.67 102.53 49.30 98.06 48.12 C 93.70 46.83 89.53 44.85 85.00 44.14 M 66.95 49.27 C 69.64 52.24 73.36 53.93 76.45 56.41 C 79.31 57.09 81.95 58.78 84.86 59.07 C 82.12 57.60 79.82 55.54 77.54 53.47 C 73.98 52.14 70.25 51.24 66.95 49.27 M 75.53 50.06 C 76.05 50.37 77.09 51.00 77.61 51.31 C 78.14 51.40 79.22 51.57 79.75 51.66 C 80.83 52.71 81.58 54.30 83.10 54.80 C 87.21 56.12 91.40 57.53 94.93 60.09 C 97.24 61.86 99.13 64.07 101.20 66.09 C 98.42 60.09 93.17 55.06 86.89 52.90 C 83.29 51.39 78.97 51.51 75.80 49.17 C 75.73 49.39 75.60 49.84 75.53 50.06 M 60.41 56.67 C 69.17 63.77 82.00 62.70 90.20 70.79 C 86.12 64.23 78.52 61.16 71.56 58.65 C 66.00 57.01 60.09 55.43 56.03 50.98 C 56.87 53.27 58.49 55.19 60.41 56.67 M 48.04 52.95 C 48.83 58.94 53.26 63.85 58.59 66.36 C 64.84 69.04 71.61 70.29 77.95 72.77 C 73.81 70.05 69.34 67.91 64.69 66.21 C 57.95 63.72 50.83 60.03 48.04 52.95 M 34.19 64.79 C 34.46 70.38 39.33 74.04 44.06 76.05 C 40.43 72.61 36.75 69.15 34.19 64.79 Z" />
<path fill="#0d0905" opacity="1.00" d=" M 304.41 44.56 C 310.66 43.39 317.50 44.38 322.64 48.32 C 332.07 54.99 331.83 70.87 322.72 77.72 C 314.74 83.64 302.54 83.66 294.94 77.10 C 288.85 72.13 287.10 63.04 290.01 55.90 C 292.31 49.87 298.14 45.66 304.41 44.56 M 306.48 52.63 C 296.72 55.46 297.70 72.63 307.94 73.86 C 314.57 75.04 319.33 68.13 318.44 62.06 C 318.81 55.92 312.49 50.42 306.48 52.63 Z" />
<path fill="#0d0905" opacity="1.00" d=" M 188.16 45.13 C 193.77 45.12 199.38 45.12 204.99 45.10 C 209.74 45.03 214.84 46.28 218.19 49.84 C 222.85 54.50 222.33 63.11 217.15 67.18 C 212.16 71.24 205.36 71.15 199.28 70.85 C 199.21 74.33 199.21 77.80 199.22 81.28 C 195.53 81.30 191.84 81.30 188.16 81.28 C 188.17 69.23 188.17 57.18 188.16 45.13 M 199.27 52.56 C 199.21 56.10 199.22 59.64 199.20 63.19 C 201.73 63.08 204.31 63.31 206.81 62.82 C 210.70 61.85 211.59 55.84 208.20 53.77 C 205.44 52.37 202.27 52.58 199.27 52.56 Z" />
<path fill="#0d0905" opacity="1.00" d=" M 225.93 45.12 C 235.35 45.14 244.78 45.06 254.21 45.17 C 254.41 47.83 254.19 50.48 253.77 53.11 C 248.06 53.12 242.31 52.76 236.62 53.29 C 236.68 55.32 236.74 57.36 236.77 59.40 C 241.83 59.35 246.89 59.17 251.95 59.38 C 251.88 61.78 251.83 64.17 251.83 66.57 C 246.80 66.78 241.75 66.83 236.72 66.50 C 236.72 68.88 236.72 71.26 236.72 73.64 C 242.71 73.34 248.72 73.34 254.70 73.67 C 254.69 76.19 254.71 78.71 254.74 81.23 C 245.14 81.38 235.53 81.26 225.93 81.29 C 225.92 69.23 225.92 57.18 225.93 45.12 Z" />
<path fill="#0d0905" opacity="1.00" d=" M 260.28 45.14 C 263.95 45.11 267.63 45.12 271.32 45.12 C 271.52 54.52 271.13 63.92 271.51 73.32 C 277.02 73.16 282.53 73.26 288.04 73.24 C 288.20 75.91 288.24 78.60 288.20 81.28 C 278.82 81.27 269.44 81.38 260.06 81.22 C 260.34 69.19 260.33 57.17 260.28 45.14 Z" />
<path fill="#0d0905" opacity="1.00" d=" M 203.38 97.40 C 205.79 94.38 207.43 90.78 210.11 88.00 C 211.32 86.79 213.00 88.11 214.15 88.73 C 227.11 97.86 240.27 106.69 253.38 115.60 C 257.24 118.17 260.99 120.93 265.10 123.11 C 258.00 126.86 250.14 128.98 242.46 131.19 C 242.84 129.90 243.55 128.77 244.44 127.78 C 243.61 126.99 242.85 126.14 242.13 125.26 C 241.77 126.88 240.80 127.64 239.23 127.51 C 240.44 126.06 241.60 124.52 241.91 122.59 C 241.46 122.98 240.56 123.77 240.10 124.16 C 239.47 125.38 237.21 124.13 237.86 122.87 C 237.81 122.48 237.70 121.70 237.64 121.31 C 236.80 121.76 236.12 122.51 235.19 122.76 L 234.56 122.53 C 234.26 122.35 233.65 121.99 233.34 121.81 C 233.47 120.97 233.61 120.14 233.75 119.30 C 232.90 119.74 232.19 120.43 231.28 120.72 C 231.09 120.43 230.72 119.84 230.54 119.55 L 230.11 118.95 L 229.62 118.41 C 230.08 117.79 231.00 116.54 231.46 115.92 C 230.62 116.50 228.93 117.67 228.09 118.25 C 228.19 117.37 228.39 115.61 228.48 114.73 C 228.28 115.27 227.87 116.34 227.66 116.87 L 226.17 116.86 C 226.33 116.13 226.66 114.66 226.82 113.93 C 226.42 114.15 225.62 114.58 225.22 114.80 C 225.03 114.40 224.67 113.60 224.49 113.21 C 223.98 114.10 223.48 115.00 222.99 115.90 C 222.62 115.63 221.88 115.08 221.51 114.81 L 221.80 114.94 C 222.57 113.58 223.31 112.21 223.98 110.81 C 222.67 112.06 221.36 113.32 220.05 114.57 L 220.87 112.01 C 220.13 112.23 218.64 112.67 217.90 112.88 C 218.70 111.55 219.52 110.23 220.35 108.91 C 218.96 109.99 217.59 111.10 216.21 112.20 C 216.51 111.06 217.12 108.78 217.42 107.64 L 215.98 110.76 C 215.42 109.92 215.09 109.00 215.00 108.01 C 215.44 107.73 215.44 107.73 215.00 108.01 C 214.36 108.31 213.07 108.93 212.42 109.24 C 212.72 108.61 213.31 107.35 213.60 106.72 C 213.76 106.07 213.76 106.07 213.60 106.72 C 212.82 106.93 211.27 107.37 210.49 107.59 C 211.49 106.01 212.54 104.45 213.59 102.90 C 212.75 103.48 211.07 104.64 210.23 105.22 C 210.35 104.35 210.58 102.61 210.70 101.74 C 209.71 103.18 208.78 104.73 207.21 105.63 C 207.50 104.56 207.80 103.50 208.11 102.43 L 205.18 103.95 C 206.15 102.26 207.12 100.58 208.11 98.90 C 206.63 100.31 205.11 101.67 203.57 103.00 C 204.50 101.08 205.44 99.17 206.40 97.27 C 204.72 98.68 203.19 100.25 201.73 101.87 C 205.74 104.36 209.13 107.86 213.49 109.75 C 213.76 110.15 214.30 110.93 214.57 111.32 C 222.12 115.96 229.44 121.06 236.35 126.63 C 237.83 127.83 241.11 128.45 240.83 130.77 C 239.26 131.24 238.30 129.58 237.17 128.85 C 226.85 121.82 216.65 114.59 206.47 107.37 C 204.52 106.00 202.42 104.79 200.82 103.00 C 200.11 100.67 202.30 99.14 203.38 97.40 M 235.22 120.36 C 235.86 120.75 235.86 120.75 235.22 120.36 Z" />
<path fill="#0d0905" opacity="1.00" d=" M 255.72 91.57 C 256.24 90.19 256.62 88.66 257.86 87.73 C 258.30 89.03 258.73 90.33 259.15 91.63 C 260.77 91.66 262.40 91.70 264.02 91.76 C 262.86 92.83 261.69 93.87 260.51 94.91 C 260.91 96.62 261.32 98.34 261.72 100.07 C 260.24 99.09 258.77 98.14 257.29 97.18 C 255.96 98.14 254.61 99.07 253.28 100.00 C 253.66 98.33 254.06 96.66 254.47 94.99 C 253.30 93.97 252.14 92.94 251.00 91.88 C 252.57 91.77 254.14 91.66 255.72 91.57 Z" />
<path fill="#0d0905" opacity="1.00" d=" M 288.39 98.28 C 290.46 94.00 295.17 90.95 299.99 91.38 C 306.22 91.46 311.71 97.76 310.47 103.98 C 310.12 108.53 305.97 111.08 303.13 114.09 C 306.20 114.89 309.56 113.98 312.46 115.52 C 316.47 117.30 319.39 121.56 318.82 126.04 C 319.19 132.30 312.83 137.05 306.96 136.80 C 301.07 137.09 297.72 130.59 291.82 130.81 C 282.76 131.56 273.52 132.50 264.95 135.72 C 270.21 134.27 275.60 133.57 280.94 132.57 C 287.01 137.03 293.49 140.88 299.58 145.31 C 302.74 147.52 306.77 149.78 307.30 154.02 C 307.55 160.01 300.92 166.01 295.01 163.08 C 285.33 156.87 276.23 149.77 266.82 143.16 C 264.80 141.81 262.37 141.38 260.05 140.87 C 260.19 140.33 260.48 139.26 260.62 138.73 C 264.51 138.86 268.98 138.03 272.22 140.77 C 279.84 146.83 287.49 152.85 295.25 158.73 C 296.81 160.00 298.98 159.79 300.87 159.66 C 303.48 159.06 304.48 156.28 305.03 153.97 C 303.43 156.70 300.38 160.31 296.89 158.28 C 288.90 152.70 281.70 146.04 273.93 140.14 C 270.84 137.63 266.59 138.26 263.00 137.01 C 244.78 146.23 226.54 155.64 207.33 162.64 C 208.00 161.51 208.88 160.58 209.95 159.83 C 217.32 154.51 224.91 149.50 232.18 144.06 C 224.76 145.84 217.55 148.41 210.14 150.24 C 205.33 151.42 200.71 153.43 195.76 153.97 C 196.73 152.80 198.00 151.95 199.38 151.33 C 218.18 142.08 237.42 133.68 257.39 127.30 C 257.24 127.81 256.94 128.82 256.79 129.33 C 250.97 131.16 246.66 135.85 241.21 138.44 C 236.12 140.51 230.64 141.52 225.69 143.93 C 230.23 143.03 234.42 140.67 239.09 140.44 C 234.38 145.11 228.36 148.11 223.40 152.48 C 235.39 147.46 246.56 140.62 258.66 135.78 C 257.56 134.87 256.48 133.94 255.40 133.02 C 256.96 130.73 257.86 127.41 260.88 126.63 C 265.49 125.06 270.04 123.07 273.70 119.77 C 277.73 116.16 282.26 112.99 285.55 108.64 C 288.01 105.69 286.74 101.55 288.39 98.28 M 296.44 95.66 C 291.30 97.34 289.17 104.96 293.49 108.57 C 298.14 112.50 306.35 109.04 306.89 103.00 C 307.36 97.71 301.29 93.50 296.44 95.66 M 289.40 113.56 C 282.68 116.00 278.16 121.88 272.37 125.75 C 273.30 126.97 276.29 128.11 272.62 129.55 L 272.69 126.47 C 270.68 126.43 270.02 127.31 270.70 129.12 C 267.86 129.34 265.01 129.46 262.17 129.38 C 262.54 130.87 262.76 132.38 262.73 133.93 C 267.75 131.42 273.42 130.89 278.60 128.84 C 283.46 127.41 288.67 127.25 293.39 125.30 C 295.64 124.22 296.32 121.57 297.68 119.66 C 298.77 117.64 301.46 116.80 301.86 114.37 C 297.67 114.59 293.55 112.84 289.40 113.56 M 305.40 118.55 C 300.55 119.57 297.27 126.18 301.00 130.08 C 304.74 135.31 313.91 133.10 315.27 126.94 C 316.23 121.69 310.42 116.95 305.40 118.55 Z" />
<path fill="#0d0905" opacity="1.00" d=" M 176.68 95.63 C 185.08 93.82 193.78 94.99 202.30 94.76 C 202.06 95.20 201.58 96.10 201.34 96.55 C 194.90 97.00 188.43 96.66 181.98 96.55 C 180.20 96.41 178.21 96.76 176.68 95.63 Z" />
<path fill="#0d0905" opacity="1.00" d=" M 225.65 94.85 C 233.68 94.63 241.72 94.47 249.75 94.72 C 249.73 95.19 249.69 96.14 249.67 96.62 C 243.43 96.80 237.18 96.71 230.94 96.74 C 228.95 96.95 227.23 95.90 225.65 94.85 Z" />
<path fill="#0d0905" opacity="1.00" d=" M 265.24 94.66 C 272.79 94.68 280.35 94.76 287.90 94.61 C 287.79 95.08 287.58 96.00 287.48 96.46 C 280.08 96.92 272.65 96.76 265.24 96.61 C 265.24 96.13 265.24 95.15 265.24 94.66 Z" />
<path fill="#0d0905" opacity="1.00" d=" M 310.02 94.77 C 319.02 94.72 328.05 94.44 337.05 94.95 C 337.28 95.29 337.75 95.97 337.99 96.31 C 329.45 96.78 320.88 96.90 312.34 96.62 C 311.76 96.16 310.60 95.23 310.02 94.77 Z" />
<path fill="#0d0905" opacity="1.00" d=" M 210.23 105.22 C 209.56 105.54 209.56 105.54 210.23 105.22 Z" />
<path fill="#0d0905" opacity="1.00" d=" M 226.17 116.86 C 225.83 117.50 225.83 117.50 226.17 116.86 Z" />
<path fill="#0d0905" opacity="1.00" d=" M 228.09 118.25 C 227.45 118.66 227.45 118.66 228.09 118.25 Z" />
</g>
</svg>
