<?xml version="1.0" encoding="UTF-8" ?>
<!DOCTYPE svg PUBLIC "-//W3C//DTD SVG 1.1//EN" "http://www.w3.org/Graphics/SVG/1.1/DTD/svg11.dtd">
<svg width="353pt" height="190pt" viewBox="0 0 353 190" version="1.1" xmlns="http://www.w3.org/2000/svg">
<g id="#0b0704ff">
<path fill="#0b0704" opacity="1.00" d=" M 155.06 25.23 C 155.82 25.23 157.33 25.23 158.08 25.22 C 159.29 27.42 160.47 29.65 161.58 31.91 C 163.71 29.39 164.11 24.36 168.43 25.12 C 168.39 29.02 168.65 32.95 168.27 36.84 C 167.69 36.99 166.51 37.28 165.92 37.43 C 165.86 34.86 165.80 32.28 165.65 29.71 C 164.45 31.67 163.56 33.83 162.03 35.56 C 159.61 34.61 159.03 31.65 157.55 29.77 C 157.54 32.13 157.57 34.50 157.62 36.86 C 156.98 36.96 155.70 37.17 155.06 37.27 C 155.05 33.26 155.05 29.25 155.06 25.23 Z" />
<path fill="#0b0704" opacity="1.00" d=" M 193.14 25.24 C 193.74 25.25 194.95 25.26 195.56 25.26 C 195.50 29.10 195.71 32.95 195.49 36.79 C 194.39 37.54 193.44 37.42 192.64 36.41 C 190.83 34.21 189.28 31.80 187.46 29.60 C 187.29 32.20 187.18 34.81 187.09 37.41 C 186.61 37.27 185.65 36.99 185.17 36.84 C 184.53 32.97 184.85 29.02 184.65 25.11 C 189.12 25.00 190.29 30.43 193.08 33.02 C 193.11 30.43 193.11 27.84 193.14 25.24 Z" />
<path fill="#0b0704" opacity="1.00" d=" M 198.39 25.37 C 201.46 25.10 204.57 25.10 207.65 25.38 C 207.85 25.88 208.27 26.87 208.47 27.37 C 207.07 27.41 205.67 27.45 204.27 27.48 C 204.32 30.71 204.32 33.94 204.31 37.17 C 203.67 37.16 202.38 37.16 201.74 37.16 C 201.73 33.94 201.73 30.72 201.75 27.51 C 200.34 27.46 198.93 27.40 197.52 27.34 C 197.74 26.85 198.17 25.86 198.39 25.37 Z" />
<path fill="#0b0704" opacity="1.00" d=" M 210.50 25.33 C 213.18 25.27 215.88 25.08 218.55 25.36 C 218.75 25.85 219.15 26.84 219.35 27.33 C 217.32 27.41 215.27 27.38 213.25 27.59 C 211.32 31.06 216.42 30.23 218.33 30.32 L 218.35 32.06 C 216.09 32.38 212.52 31.18 212.46 34.64 C 214.63 34.79 216.83 34.72 218.99 35.05 C 219.46 35.70 219.48 36.36 219.04 37.04 C 216.21 37.32 213.35 37.14 210.52 37.21 C 210.48 33.25 210.48 29.29 210.50 25.33 Z" />
<path fill="#0b0704" opacity="1.00" d=" M 222.32 25.24 C 222.94 25.24 224.17 25.25 224.78 25.26 C 226.71 27.95 228.67 30.63 230.76 33.19 C 230.76 30.48 230.73 27.77 230.73 25.06 C 231.35 25.18 232.59 25.40 233.21 25.52 C 233.43 29.49 233.26 33.48 233.25 37.46 C 228.87 37.20 227.73 32.16 224.88 29.61 C 224.81 32.15 224.80 34.69 224.80 37.23 C 224.18 37.17 222.93 37.04 222.30 36.98 C 222.33 33.07 222.33 29.15 222.32 25.24 Z" />
<path fill="#0b0704" opacity="1.00" d=" M 237.06 25.23 C 237.67 25.24 238.89 25.26 239.50 25.27 C 239.49 28.82 239.61 32.36 239.55 35.90 C 240.04 37.29 237.27 38.12 237.05 36.44 C 236.65 32.72 236.94 28.96 237.06 25.23 Z" />
<path fill="#0b0704" opacity="1.00" d=" M 243.50 25.27 C 244.57 25.29 245.64 25.31 246.72 25.33 C 247.79 27.61 248.96 29.85 250.33 31.98 C 251.50 29.70 252.70 27.44 253.90 25.18 C 254.64 25.21 256.13 25.28 256.87 25.31 C 256.91 29.29 256.91 33.27 256.88 37.25 C 256.26 37.17 255.03 37.00 254.41 36.91 C 254.37 34.78 254.28 32.66 254.14 30.54 C 252.77 32.37 251.46 34.25 250.02 36.03 C 248.63 34.00 247.38 31.89 246.12 29.78 C 246.09 32.33 246.11 34.89 246.09 37.44 C 245.47 37.25 244.21 36.86 243.58 36.67 C 243.35 32.88 243.57 29.07 243.50 25.27 Z" />
<path fill="#0b0704" opacity="1.00" d=" M 267.25 25.28 C 270.07 25.27 272.90 25.28 275.73 25.31 C 275.70 25.85 275.65 26.93 275.62 27.46 C 273.63 27.46 271.64 27.45 269.65 27.45 C 269.66 28.16 269.67 29.56 269.68 30.26 C 271.58 30.26 273.48 30.27 275.38 30.30 C 275.30 33.64 271.50 32.11 269.36 32.55 C 269.16 36.26 273.46 34.74 275.79 35.24 C 275.72 35.72 275.58 36.69 275.51 37.17 C 272.78 37.14 270.05 37.15 267.32 37.22 C 267.22 33.24 267.23 29.26 267.25 25.28 Z" />
<path fill="#0b0704" opacity="1.00" d=" M 279.20 24.87 C 283.56 25.46 284.56 30.60 287.42 33.24 C 287.46 30.58 287.45 27.92 287.43 25.25 C 288.04 25.24 289.26 25.22 289.87 25.21 C 290.20 29.28 290.19 33.37 289.87 37.45 C 285.61 37.17 284.40 32.25 281.59 29.76 C 281.56 32.12 281.60 34.49 281.67 36.85 C 281.03 36.95 279.76 37.15 279.13 37.25 C 279.11 33.12 279.06 28.99 279.20 24.87 Z" />
<path fill="#0b0704" opacity="1.00" d=" M 292.37 25.31 C 295.75 25.23 299.13 25.23 302.52 25.36 C 302.51 25.88 302.48 26.93 302.47 27.45 C 301.20 27.46 299.94 27.47 298.68 27.48 C 298.68 30.67 298.69 33.86 298.70 37.04 C 298.07 37.07 296.82 37.14 296.19 37.17 C 296.20 33.98 296.19 30.79 296.12 27.59 C 294.88 27.53 293.64 27.47 292.40 27.41 C 292.39 26.89 292.38 25.84 292.37 25.31 Z" />
<path fill="#0b0704" opacity="1.00" d=" M 307.44 25.59 C 311.28 24.01 316.35 26.58 316.27 31.00 C 316.63 35.63 311.03 39.02 307.05 36.68 C 302.34 34.86 302.45 26.97 307.44 25.59 M 307.28 28.02 C 305.59 29.91 305.67 33.64 308.17 34.81 C 310.65 36.34 314.23 33.95 313.64 31.03 C 313.92 27.87 309.59 26.01 307.28 28.02 Z" />
<path fill="#0b0704" opacity="1.00" d=" M 338.04 25.23 C 340.93 25.25 343.82 25.27 346.72 25.34 C 346.69 25.87 346.64 26.92 346.62 27.45 C 344.57 27.46 342.51 27.46 340.47 27.47 C 340.48 28.17 340.52 29.57 340.53 30.27 C 342.30 30.26 344.08 30.26 345.86 30.27 C 345.81 30.81 345.72 31.88 345.67 32.42 C 343.86 32.45 342.05 32.48 340.24 32.51 C 339.71 36.67 344.24 34.84 346.77 35.16 C 346.73 35.66 346.64 36.68 346.60 37.18 C 343.69 37.16 340.79 37.15 337.90 37.14 C 337.87 33.17 337.81 29.20 338.04 25.23 Z" />
<path fill="#0b0704" opacity="1.00" d=" M 175.08 25.76 C 175.62 25.59 176.71 25.26 177.26 25.10 C 179.79 28.83 181.09 33.30 182.62 37.53 C 180.61 37.40 179.57 35.84 178.57 34.36 C 177.16 34.33 175.75 34.31 174.35 34.30 C 173.33 35.83 172.27 37.44 170.21 37.54 C 171.69 33.56 173.17 29.56 175.08 25.76 M 175.44 32.12 C 175.95 32.13 176.99 32.14 177.51 32.14 C 178.04 30.97 177.80 30.00 176.78 29.20 C 175.33 28.88 174.70 31.15 175.44 32.12 Z" />
<path fill="#0b0704" opacity="1.00" d=" M 260.70 25.41 C 261.31 25.41 262.53 25.40 263.15 25.40 C 263.34 29.31 263.17 33.23 263.20 37.15 C 262.56 37.16 261.28 37.17 260.63 37.17 C 260.64 33.25 260.47 29.33 260.70 25.41 Z" />
<path fill="#0b0704" opacity="1.00" d=" M 324.54 25.19 C 327.66 25.36 331.33 24.80 333.85 27.09 C 336.74 29.58 335.82 34.94 332.35 36.43 C 329.89 37.48 327.15 37.11 324.56 37.21 C 324.54 33.20 324.53 29.19 324.54 25.19 M 327.09 27.32 C 327.10 29.93 327.13 32.55 327.16 35.16 C 329.81 35.32 333.34 34.37 332.92 31.01 C 332.99 27.80 329.54 27.38 327.09 27.32 Z" />
<path fill="#0b0704" opacity="1.00" d=" M 10.54 27.74 C 54.27 27.86 98.01 27.55 141.74 27.90 C 141.76 67.59 141.75 107.28 141.75 146.97 C 141.71 152.09 141.89 157.22 141.58 162.33 C 97.90 162.15 54.22 162.29 10.55 162.26 C 10.46 117.42 10.47 72.58 10.54 27.74 M 15.04 33.26 C 14.96 74.61 15.65 115.97 15.03 157.32 C 55.66 157.29 96.30 157.29 136.93 157.32 C 137.07 115.97 136.99 74.62 136.97 33.27 C 96.33 33.30 55.68 33.31 15.04 33.26 Z" />
<path fill="#0b0704" opacity="1.00" d=" M 72.14 36.22 C 81.53 36.58 90.10 40.54 98.13 45.09 C 95.74 42.52 92.81 40.56 90.36 38.07 C 97.25 40.58 103.66 44.24 109.24 48.99 C 108.27 47.49 107.21 46.04 106.22 44.56 C 114.66 48.85 121.38 58.08 119.24 67.92 C 126.60 69.87 130.02 77.93 129.80 84.98 C 129.55 95.61 127.12 106.04 125.10 116.44 C 124.07 115.89 123.04 115.35 122.02 114.81 C 116.31 119.44 114.74 126.96 111.46 133.19 C 111.43 126.39 113.32 119.13 110.33 112.68 C 108.52 108.41 104.87 105.40 102.29 101.64 C 104.05 101.87 105.76 102.37 107.44 102.96 C 106.35 101.64 105.28 100.30 104.23 98.95 C 104.27 94.98 104.27 91.00 104.20 87.03 C 103.41 86.13 102.62 85.23 101.83 84.33 C 103.42 83.72 104.97 83.02 106.47 82.23 C 106.33 82.85 106.05 84.09 105.90 84.71 C 106.70 84.70 108.30 84.67 109.10 84.66 C 108.22 83.72 107.33 82.80 106.46 81.85 C 110.64 79.81 114.65 76.72 116.17 72.15 C 109.11 79.79 99.20 84.16 89.07 85.90 C 81.76 87.07 74.44 88.69 67.00 88.30 C 61.96 88.08 57.04 86.80 52.03 86.38 C 48.16 86.17 44.91 89.26 43.83 92.79 C 39.83 104.19 40.81 116.48 39.84 128.31 C 37.43 115.92 35.66 103.38 32.77 91.09 C 31.47 85.13 25.69 81.66 23.94 75.95 C 27.52 80.25 32.55 82.82 38.08 83.57 C 37.84 83.19 37.37 82.44 37.13 82.06 C 29.66 78.67 24.69 69.86 26.84 61.75 C 28.39 54.21 34.46 48.57 40.78 44.69 C 36.11 50.80 37.25 59.48 41.69 65.37 C 47.09 72.57 55.85 76.33 64.39 78.30 C 64.84 78.63 65.73 79.29 66.18 79.63 C 65.64 79.04 65.09 78.46 64.55 77.89 C 56.78 75.00 49.91 69.67 45.20 62.84 C 41.54 57.14 40.83 48.76 45.54 43.43 C 47.02 41.55 49.34 40.71 51.42 39.72 C 51.09 40.51 50.42 42.11 50.09 42.91 C 54.62 37.81 62.23 37.31 68.47 38.84 C 71.98 39.60 74.59 42.25 77.77 43.70 C 77.81 42.51 76.54 42.11 75.86 41.38 C 74.41 39.83 73.37 37.94 72.14 36.22 M 85.03 44.01 C 88.87 46.13 92.61 48.52 95.71 51.65 C 95.60 50.99 95.40 49.65 95.30 48.99 C 99.80 50.78 103.43 54.00 107.08 57.07 C 104.86 53.84 102.87 49.87 98.94 48.46 C 94.34 46.88 89.77 45.13 85.03 44.01 M 66.93 49.26 C 69.45 51.82 72.57 53.62 75.46 55.71 C 78.00 57.54 81.41 57.43 83.92 59.34 C 84.13 59.13 84.33 58.92 84.54 58.71 C 81.90 57.42 79.78 55.39 77.53 53.55 C 74.00 52.11 70.26 51.18 66.93 49.26 M 75.13 49.25 C 75.93 49.90 76.75 50.54 77.57 51.18 C 80.67 51.90 82.28 55.23 85.57 55.64 C 91.84 57.26 96.98 61.30 101.23 66.04 C 99.35 62.05 96.40 58.65 92.87 56.04 C 88.37 52.49 82.50 51.75 77.14 50.22 C 76.64 49.98 75.63 49.49 75.13 49.25 M 55.72 50.95 C 56.90 52.82 58.08 54.76 59.81 56.18 C 68.63 63.76 81.78 62.64 90.32 70.76 C 87.32 66.25 82.61 63.24 77.75 61.07 C 70.42 57.60 61.69 56.94 55.72 50.95 M 59.34 66.71 C 65.40 69.09 71.85 70.38 77.91 72.80 C 73.85 69.99 69.35 67.96 64.74 66.24 C 58.02 63.74 50.92 60.09 48.08 53.04 C 48.93 59.28 53.70 64.29 59.34 66.71 M 34.14 64.84 C 34.57 70.37 39.27 74.00 43.99 76.04 C 40.39 72.59 36.82 69.08 34.14 64.84 Z" />
<path fill="#0b0704" opacity="1.00" d=" M 182.43 49.36 C 188.40 45.56 196.33 45.52 202.75 48.15 C 203.26 50.15 203.10 52.24 203.19 54.29 C 198.81 52.61 193.78 51.21 189.24 53.12 C 182.34 56.17 182.71 68.09 189.93 70.51 C 194.22 72.01 198.83 70.78 202.91 69.18 C 203.01 71.20 203.10 73.23 203.19 75.25 C 196.43 77.62 188.22 78.09 182.09 73.87 C 174.21 68.30 174.30 54.68 182.43 49.36 Z" />
<path fill="#0b0704" opacity="1.00" d=" M 219.47 46.55 C 223.55 46.09 227.93 46.26 231.56 48.40 C 241.03 53.04 241.30 68.13 233.05 74.10 C 226.41 78.83 216.47 78.10 210.66 72.37 C 206.33 67.60 205.58 60.08 208.25 54.32 C 210.25 49.92 214.85 47.28 219.47 46.55 M 219.51 52.69 C 214.37 55.08 213.82 62.22 215.91 66.88 C 218.08 72.66 227.66 72.57 229.77 66.78 C 231.62 62.29 231.36 55.95 226.97 53.01 C 224.69 51.88 221.88 51.81 219.51 52.69 Z" />
<path fill="#0b0704" opacity="1.00" d=" M 244.54 47.21 C 245.40 46.35 246.88 46.91 247.97 46.70 C 254.08 46.98 260.70 45.76 266.33 48.78 C 271.10 51.31 271.66 58.39 268.24 62.22 C 267.02 63.31 265.61 64.14 264.35 65.16 C 266.59 69.18 269.49 72.79 271.98 76.66 C 268.60 76.12 263.39 78.53 261.61 74.55 C 259.96 71.79 258.43 68.97 256.85 66.18 C 255.42 66.13 253.98 66.09 252.55 66.05 C 252.48 69.60 252.44 73.16 252.35 76.71 C 249.70 76.73 247.05 76.72 244.41 76.67 C 244.47 66.85 244.17 57.02 244.54 47.21 M 252.49 52.35 C 252.49 55.17 252.52 57.98 252.56 60.80 C 255.74 60.54 259.80 61.64 262.15 58.84 C 263.06 56.96 262.96 54.06 260.77 53.11 C 258.14 52.11 255.24 52.47 252.49 52.35 Z" />
<path fill="#0b0704" opacity="1.00" d=" M 303.35 46.70 C 310.65 46.77 317.95 46.75 325.25 46.72 C 325.23 48.71 325.24 50.70 325.24 52.69 C 320.56 52.73 315.88 52.71 311.20 52.71 C 311.19 54.68 311.18 56.65 311.17 58.62 C 315.19 58.54 319.21 58.53 323.23 58.68 C 323.10 60.55 322.97 62.43 322.83 64.31 C 318.95 64.24 315.07 64.24 311.19 64.26 C 311.19 66.40 311.19 68.54 311.19 70.69 C 315.98 70.69 320.77 70.70 325.57 70.68 C 325.55 72.69 325.54 74.70 325.54 76.71 C 318.13 76.71 310.73 76.72 303.32 76.71 C 303.39 66.71 303.34 56.71 303.35 46.70 Z" />
<path fill="#0b0704" opacity="1.00" d=" M 274.09 46.74 C 282.50 46.74 290.91 46.71 299.31 46.76 C 299.33 48.74 299.35 50.72 299.37 52.71 C 296.45 52.72 293.54 52.72 290.63 52.71 C 290.64 60.70 290.65 68.69 290.63 76.68 C 288.01 76.71 285.39 76.72 282.77 76.71 C 282.82 68.72 282.72 60.72 282.83 52.73 C 279.93 52.71 277.02 52.71 274.12 52.72 C 274.10 50.73 274.10 48.73 274.09 46.74 Z" />
<path fill="#0b0704" opacity="1.00" d=" M 298.00 85.82 C 299.03 85.15 300.06 84.50 301.12 83.88 C 300.59 85.01 300.00 86.11 299.37 87.18 C 300.17 90.73 299.91 94.38 299.80 97.99 C 299.27 97.91 298.22 97.74 297.69 97.66 C 297.67 93.71 297.71 89.76 298.00 85.82 Z" />
<path fill="#0b0704" opacity="1.00" d=" M 203.42 87.75 C 205.77 87.80 208.12 87.83 210.48 87.84 C 210.50 88.29 210.54 89.19 210.56 89.64 C 208.78 89.72 207.01 89.79 205.25 89.87 C 205.11 93.22 209.73 90.62 210.14 93.52 C 208.51 93.53 206.89 93.55 205.27 93.56 C 204.76 97.56 209.74 94.53 210.87 97.13 C 208.88 98.67 205.86 97.57 203.45 97.80 C 203.33 94.45 203.31 91.09 203.42 87.75 Z" />
<path fill="#0b0704" opacity="1.00" d=" M 233.32 87.74 C 235.82 88.11 239.16 86.82 240.83 89.34 C 238.98 89.56 237.14 89.73 235.29 89.85 C 235.21 90.34 235.06 91.32 234.99 91.82 C 236.48 91.85 237.97 91.88 239.47 91.91 L 239.44 93.54 C 238.02 93.53 236.60 93.52 235.19 93.51 C 235.17 94.10 235.13 95.26 235.11 95.84 C 236.96 96.33 239.90 95.39 240.54 97.81 C 238.10 97.87 235.67 97.86 233.24 97.83 C 233.24 94.47 233.25 91.10 233.32 87.74 Z" />
<path fill="#0b0704" opacity="1.00" d=" M 286.54 87.68 C 288.99 87.87 291.60 87.76 293.85 88.92 C 296.43 90.41 296.38 94.43 294.44 96.44 C 292.21 98.22 289.15 97.74 286.50 97.92 C 286.51 94.51 286.52 91.09 286.54 87.68 M 287.16 96.83 C 289.59 96.41 293.84 96.17 293.69 92.83 C 293.91 89.94 290.46 89.68 288.36 89.59 C 288.36 91.31 288.95 93.05 288.67 94.76 C 287.20 93.39 288.06 90.62 287.51 88.75 C 287.03 91.42 287.31 94.14 287.16 96.83 Z" />
<path fill="#0b0704" opacity="1.00" d=" M 183.33 97.53 C 179.19 96.56 179.05 89.69 183.00 88.36 C 184.93 87.58 187.90 87.19 189.08 89.42 C 186.69 89.54 183.01 88.97 182.31 92.10 C 181.27 95.77 186.06 97.07 188.72 95.74 C 189.16 98.70 185.15 98.04 183.33 97.53 Z" />
<path fill="#0b0704" opacity="1.00" d=" M 190.52 97.78 C 191.07 94.28 189.02 89.65 192.10 87.02 C 192.92 89.91 192.76 92.93 192.74 95.90 C 194.15 95.90 195.56 95.90 196.98 95.89 C 196.96 96.40 196.93 97.41 196.91 97.91 C 194.78 97.88 192.65 97.84 190.52 97.78 Z" />
<path fill="#0b0704" opacity="1.00" d=" M 198.68 88.36 C 199.20 88.14 200.22 87.70 200.74 87.48 C 200.84 90.95 200.82 94.43 200.78 97.91 C 200.24 97.86 199.16 97.77 198.62 97.72 C 198.63 94.60 198.43 91.47 198.68 88.36 Z" />
<path fill="#0b0704" opacity="1.00" d=" M 212.74 87.36 C 215.87 88.65 217.40 91.86 219.44 94.33 C 219.79 91.89 218.58 88.65 221.10 87.02 C 222.10 90.65 221.69 94.44 221.65 98.15 C 217.99 97.64 216.89 93.55 214.64 91.18 C 214.02 93.51 216.06 97.57 212.79 98.36 C 212.59 94.70 212.58 91.03 212.74 87.36 Z" />
<path fill="#0b0704" opacity="1.00" d=" M 223.27 87.82 C 226.05 87.82 228.84 87.83 231.64 87.84 L 231.65 89.77 C 230.81 89.76 229.14 89.75 228.31 89.75 C 228.29 92.43 228.29 95.11 228.29 97.80 L 226.37 97.95 C 226.36 95.22 226.37 92.50 226.38 89.77 C 225.60 89.78 224.03 89.79 223.25 89.80 L 223.27 87.82 Z" />
<path fill="#0b0704" opacity="1.00" d=" M 241.59 91.16 C 241.34 87.72 248.04 86.26 248.79 89.48 C 246.90 89.65 244.81 89.34 243.27 90.74 C 245.28 92.06 248.69 92.22 249.36 94.94 C 248.89 98.60 243.23 98.98 241.37 96.24 C 243.39 96.16 245.41 96.14 247.44 96.05 C 246.50 93.30 242.89 93.54 241.59 91.16 Z" />
<path fill="#0b0704" opacity="1.00" d=" M 254.75 91.46 C 257.78 90.07 260.86 88.70 264.17 88.18 C 262.78 90.23 260.27 90.85 258.09 91.69 C 260.10 92.59 262.55 93.05 263.80 95.07 C 260.63 94.33 257.45 93.34 254.75 91.46 Z" />
<path fill="#0b0704" opacity="1.00" d=" M 265.11 88.19 C 266.64 88.21 268.18 88.23 269.72 88.25 C 269.71 91.44 269.70 94.64 269.69 97.84 C 269.15 97.84 268.06 97.84 267.52 97.84 C 267.53 95.36 267.66 92.88 267.42 90.41 C 266.84 90.27 265.69 89.98 265.11 89.84 C 265.11 89.43 265.11 88.60 265.11 88.19 Z" />
<path fill="#0b0704" opacity="1.00" d=" M 273.49 88.17 C 275.52 88.14 277.57 88.04 279.59 88.38 C 279.76 90.97 275.37 88.78 274.74 91.25 C 276.74 91.84 280.27 91.92 279.75 94.93 C 279.51 98.74 274.01 98.59 271.81 96.41 C 273.92 96.00 276.85 96.97 278.09 94.62 C 276.78 93.01 274.75 93.30 272.93 93.25 C 273.11 91.55 273.30 89.86 273.49 88.17 Z" />
<path fill="#0b0704" opacity="1.00" d=" M 301.24 98.09 C 302.74 94.66 303.80 90.97 305.97 87.89 L 307.00 87.70 C 309.17 90.39 310.02 93.86 311.55 96.92 C 313.79 95.90 316.27 96.19 318.65 96.05 C 317.71 93.13 313.47 93.85 312.60 91.01 C 312.56 87.29 318.40 86.70 320.25 89.41 C 318.26 89.57 316.26 89.71 314.28 89.99 C 315.91 92.16 319.79 92.07 320.37 94.97 C 319.81 98.89 314.97 98.06 312.25 97.21 C 311.69 97.44 310.56 97.90 310.00 98.13 C 309.68 97.53 309.04 96.32 308.71 95.72 C 307.44 95.72 306.17 95.73 304.91 95.75 C 303.99 96.98 302.84 97.96 301.24 98.09 M 306.19 91.05 C 304.57 91.68 304.97 94.76 306.92 94.29 C 308.65 93.84 307.97 90.58 306.19 91.05 Z" />
<path fill="#0b0704" opacity="1.00" d=" M 325.79 92.82 C 331.68 92.78 337.59 92.85 343.46 93.47 C 337.58 93.84 331.67 94.00 325.78 94.26 C 325.78 93.90 325.79 93.18 325.79 92.82 Z" />
<path fill="#0b0704" opacity="1.00" d=" M 157.59 93.64 C 163.73 92.99 170.16 92.02 176.22 93.61 C 170.09 94.96 163.81 93.24 157.59 93.64 Z" />
<path fill="#0b0704" opacity="1.00" d=" M 254.69 96.53 C 256.97 94.07 260.82 95.97 263.58 96.51 C 263.61 96.82 263.67 97.44 263.70 97.75 C 260.65 97.89 257.63 97.27 254.69 96.53 Z" />
<path fill="#0b0704" opacity="1.00" d=" M 238.07 115.88 C 238.38 114.32 240.21 114.87 241.34 114.51 C 241.62 117.44 241.97 120.43 241.45 123.35 C 240.43 123.77 239.35 124.01 238.22 124.05 C 237.96 121.34 237.49 118.57 238.07 115.88 Z" />
<path fill="#0b0704" opacity="1.00" d=" M 252.51 114.73 C 253.49 114.70 254.48 114.69 255.48 114.67 C 255.64 117.62 256.24 120.63 255.63 123.56 C 254.50 124.43 253.44 124.36 252.46 123.34 C 252.01 120.49 252.33 117.59 252.51 114.73 Z" />
<path fill="#0b0704" opacity="1.00" d=" M 266.61 114.68 C 267.63 114.69 268.66 114.71 269.69 114.72 C 269.86 117.83 271.03 121.49 269.03 124.22 C 267.62 124.28 266.22 123.60 266.34 122.01 C 266.11 119.56 266.36 117.11 266.61 114.68 Z" />
<path fill="#0b0704" opacity="1.00" d=" M 280.74 114.73 C 281.73 114.68 282.73 114.63 283.73 114.58 C 284.33 116.45 284.45 118.41 284.34 120.37 C 286.82 118.68 290.30 118.46 292.87 120.07 C 293.39 124.69 293.20 129.38 293.03 134.02 C 292.47 134.56 291.36 135.65 290.81 136.19 C 290.90 135.07 291.08 132.82 291.17 131.69 C 271.16 131.43 251.15 131.68 231.15 131.55 C 231.13 141.99 231.14 152.42 231.14 162.85 C 251.18 162.50 271.24 162.91 291.29 162.70 C 291.82 158.51 289.42 152.87 293.15 149.81 C 293.14 154.37 293.50 158.96 293.05 163.51 C 293.03 165.10 291.08 164.62 290.05 164.81 C 270.69 164.83 251.33 164.82 231.97 164.82 C 230.90 164.73 228.60 164.83 228.90 163.14 C 228.67 150.44 228.93 137.73 228.79 125.03 C 228.88 122.98 228.27 120.11 230.74 119.22 C 232.66 119.02 234.60 119.08 236.53 119.07 C 236.50 121.63 236.23 125.91 239.90 125.93 C 243.43 125.65 242.95 121.63 242.99 119.11 C 245.53 119.11 248.07 119.11 250.62 119.10 C 250.49 121.83 250.56 125.60 254.04 126.04 C 257.38 125.44 257.48 121.78 257.40 119.08 C 259.97 119.09 262.55 119.11 265.13 119.14 C 265.09 120.77 265.04 122.41 264.98 124.04 C 266.28 124.96 267.82 126.71 269.52 125.50 C 271.88 124.24 271.13 121.34 271.38 119.14 C 273.86 119.12 276.35 119.11 278.84 119.09 C 279.21 121.32 278.49 124.74 281.22 125.66 C 284.59 127.08 286.43 122.41 286.05 119.82 C 284.83 121.24 283.07 126.19 280.78 123.16 C 280.38 120.37 280.67 117.53 280.74 114.73 Z" />
<path fill="#0b0704" opacity="1.00" d=" M 237.25 134.55 C 237.89 134.56 239.18 134.59 239.82 134.60 C 239.81 136.76 239.78 138.93 239.53 141.08 C 237.87 139.33 237.92 136.74 237.25 134.55 Z" />
<path fill="#0b0704" opacity="1.00" d=" M 269.54 138.38 C 270.69 136.81 271.91 135.28 273.33 133.94 C 273.92 136.15 274.57 138.48 273.65 140.70 C 272.31 139.87 270.93 139.09 269.54 138.38 Z" />
<path fill="#0b0704" opacity="1.00" d=" M 282.43 134.65 C 283.51 134.58 284.60 134.65 285.69 134.68 C 285.24 135.59 284.78 136.48 284.32 137.37 C 283.92 141.59 280.09 135.37 282.43 134.65 Z" />
<path fill="#0b0704" opacity="1.00" d=" M 246.85 135.48 C 248.27 135.07 249.71 134.75 251.18 134.49 C 251.26 136.45 251.35 138.42 251.54 140.38 C 250.06 140.33 248.59 140.29 247.12 140.24 C 248.19 138.91 249.27 137.57 250.33 136.22 C 249.46 136.04 247.72 135.67 246.85 135.48 Z" />
<path fill="#0b0704" opacity="1.00" d=" M 258.39 134.86 C 259.37 134.82 261.32 134.73 262.30 134.69 C 262.47 136.22 262.66 137.76 262.86 139.29 C 261.43 140.41 259.67 140.57 258.18 139.38 C 258.87 139.29 260.24 139.09 260.92 139.00 C 260.78 138.33 260.49 137.00 260.34 136.33 C 259.85 135.96 258.88 135.23 258.39 134.86 Z" />
<path fill="#0b0704" opacity="1.00" d=" M 288.04 144.40 C 290.39 141.45 292.67 138.44 295.18 135.62 C 296.34 136.59 297.46 137.60 298.55 138.65 C 294.99 142.69 291.92 147.16 288.09 150.96 C 286.13 149.00 284.05 147.18 281.82 145.54 C 281.53 147.20 282.48 149.71 280.18 150.21 C 279.96 148.24 279.81 146.27 279.66 144.30 C 282.45 144.18 285.25 144.17 288.04 144.40 Z" />
<path fill="#0b0704" opacity="1.00" d=" M 237.07 144.62 C 238.17 144.52 239.29 144.23 240.40 144.45 C 240.74 146.06 240.93 147.69 241.19 149.32 C 239.81 149.73 238.40 149.77 237.02 149.33 C 237.06 147.76 237.07 146.19 237.07 144.62 Z" />
<path fill="#0b0704" opacity="1.00" d=" M 247.38 145.29 C 248.19 143.55 251.51 143.67 251.43 145.89 C 252.15 148.11 249.88 149.37 248.33 150.34 C 247.95 148.67 247.39 147.01 247.38 145.29 Z" />
<path fill="#0b0704" opacity="1.00" d=" M 260.39 145.98 C 260.53 143.64 262.86 144.50 264.39 144.54 C 264.40 146.20 264.41 147.86 264.40 149.52 C 261.96 150.75 259.50 148.60 260.39 145.98 M 262.15 146.42 C 260.53 149.39 265.46 146.72 262.15 146.42 Z" />
<path fill="#0b0704" opacity="1.00" d=" M 268.15 144.40 C 268.83 144.35 270.21 144.25 270.89 144.19 C 270.93 146.24 270.93 148.29 270.88 150.34 C 269.11 149.84 269.35 148.11 269.30 146.67 C 268.91 145.91 268.53 145.15 268.15 144.40 Z" />
<path fill="#0b0704" opacity="1.00" d=" M 272.25 144.42 C 272.92 144.36 274.27 144.23 274.94 144.16 C 274.72 146.11 276.26 149.70 273.37 150.04 C 273.40 149.21 273.46 147.54 273.48 146.71 C 273.07 145.95 272.66 145.18 272.25 144.42 Z" />
<path fill="#0b0704" opacity="1.00" d=" M 257.87 144.84 C 259.25 145.12 259.22 147.53 258.72 148.60 C 257.38 148.29 257.31 145.89 257.87 144.84 Z" />
<path fill="#0b0704" opacity="1.00" d=" M 237.56 159.51 C 237.84 157.55 235.91 153.85 239.00 153.68 C 241.93 153.74 241.13 157.34 240.21 159.11 C 239.33 159.24 238.44 159.37 237.56 159.51 Z" />
<path fill="#0b0704" opacity="1.00" d=" M 271.44 155.05 C 272.55 153.78 274.16 153.62 275.71 153.82 C 275.76 155.61 275.81 157.40 275.88 159.19 C 274.53 159.23 273.17 159.28 271.82 159.33 C 272.61 158.07 273.36 156.79 274.08 155.49 C 273.42 155.38 272.10 155.16 271.44 155.05 Z" />
<path fill="#0b0704" opacity="1.00" d=" M 279.30 154.07 C 281.70 154.10 284.11 154.02 286.52 153.95 C 286.83 155.39 287.14 156.84 287.46 158.28 C 285.39 159.59 282.91 159.27 280.59 159.28 C 280.62 158.07 280.65 156.85 280.68 155.64 C 280.34 155.25 279.64 154.46 279.30 154.07 M 284.24 157.67 C 284.26 157.12 284.30 156.03 284.31 155.48 C 282.15 154.01 282.06 158.48 284.24 157.67 Z" />
<path fill="#0b0704" opacity="1.00" d=" M 245.18 153.95 C 245.86 153.92 247.22 153.86 247.90 153.83 C 248.06 156.02 248.25 158.33 246.93 160.24 C 246.59 158.74 246.36 157.21 246.17 155.69 C 245.92 155.25 245.43 154.39 245.18 153.95 Z" />
<path fill="#0b0704" opacity="1.00" d=" M 257.70 154.04 C 259.86 153.99 260.06 158.54 258.54 159.29 C 257.92 157.70 257.37 155.72 257.70 154.04 Z" />
<path fill="#0b0704" opacity="1.00" d=" M 261.27 153.83 C 261.83 153.79 262.96 153.70 263.53 153.66 C 263.51 155.65 263.49 157.65 263.46 159.64 C 263.09 159.51 262.37 159.25 262.00 159.12 C 261.82 157.35 261.58 155.58 261.27 153.83 Z" />
<path fill="#0b0704" opacity="1.00" d=" M 268.44 153.91 C 269.06 153.89 270.30 153.85 270.91 153.83 C 270.93 155.96 271.52 158.36 269.80 160.01 C 269.45 157.95 269.06 155.90 268.44 153.91 Z" />
<path fill="#0b0704" opacity="1.00" d=" M 248.84 154.14 C 249.89 155.32 250.38 156.84 250.92 158.30 C 251.95 156.97 251.78 155.23 251.99 153.66 C 253.87 155.10 253.69 159.14 251.03 159.44 C 248.37 159.47 248.77 155.78 248.84 154.14 Z" />
</g>
</svg>
