<?xml version="1.0" encoding="UTF-8" ?>
<!DOCTYPE svg PUBLIC "-//W3C//DTD SVG 1.1//EN" "http://www.w3.org/Graphics/SVG/1.1/DTD/svg11.dtd">
<svg width="353pt" height="190pt" viewBox="0 0 353 190" version="1.1" xmlns="http://www.w3.org/2000/svg">
<g id="#020100ff">
<path fill="#020100" opacity="1.00" d=" M 20.30 20.69 C 60.81 20.70 101.32 20.78 141.83 20.65 C 141.97 63.99 141.90 107.33 141.86 150.68 C 131.66 150.59 121.45 150.60 111.25 150.69 C 110.86 150.49 110.06 150.07 109.67 149.87 L 108.79 149.16 C 105.13 155.75 99.70 161.49 92.78 164.65 L 91.44 164.76 C 94.50 162.20 98.14 159.76 99.75 155.97 C 99.60 155.54 99.31 154.67 99.16 154.24 C 99.47 152.25 99.82 150.27 100.03 148.27 C 98.71 150.99 98.09 154.20 95.81 156.35 C 91.42 160.35 87.21 164.84 85.05 170.49 C 80.96 166.71 73.01 167.86 71.36 161.61 C 70.44 160.00 70.26 157.19 72.75 157.27 C 73.22 159.19 73.07 161.28 73.89 163.10 C 76.38 165.86 80.37 165.58 83.76 165.72 C 83.86 165.37 84.07 164.66 84.18 164.30 C 81.03 165.41 77.77 164.16 74.75 163.26 C 73.91 159.74 74.12 155.97 72.36 152.72 C 72.43 153.36 72.56 154.63 72.63 155.27 C 71.60 155.68 70.97 156.48 70.76 157.67 C 70.19 156.92 69.05 155.43 68.48 154.68 C 68.77 157.21 69.19 159.72 69.55 162.25 C 66.27 157.43 60.92 154.96 56.50 151.42 C 52.95 148.74 51.58 144.37 49.35 140.70 C 49.44 142.55 49.63 144.40 49.78 146.25 C 46.17 140.91 44.43 134.47 44.64 128.03 C 44.07 128.20 42.93 128.55 42.36 128.72 C 41.14 120.30 45.10 112.34 44.78 103.97 C 44.65 97.81 45.05 91.63 44.46 85.50 C 43.48 79.59 41.70 73.85 40.08 68.10 C 34.83 65.93 32.27 60.10 33.53 54.67 C 34.74 60.86 40.38 65.52 46.78 65.08 C 41.62 62.36 35.95 58.23 35.86 51.78 C 35.20 45.09 39.51 39.19 44.93 35.77 C 44.31 38.82 42.88 41.92 43.80 45.07 C 45.09 50.11 49.11 53.88 53.21 56.79 C 57.27 59.24 61.59 61.79 66.47 61.87 C 62.31 59.78 57.53 58.30 54.78 54.26 C 58.55 55.97 62.23 57.97 66.30 58.89 C 65.59 57.17 63.68 56.77 62.18 56.02 C 56.84 53.76 51.94 49.78 49.70 44.31 C 48.56 41.16 49.61 37.77 51.58 35.21 C 51.45 35.09 51.20 34.86 51.07 34.74 C 49.08 35.17 48.79 37.51 48.11 39.11 C 46.58 43.16 48.80 47.14 49.93 50.96 C 48.32 49.49 46.81 47.87 46.06 45.79 C 47.16 43.26 46.96 40.48 46.11 37.91 C 47.74 35.93 49.69 32.28 52.77 33.79 C 58.16 29.27 65.37 28.80 72.08 29.36 C 71.53 28.73 70.42 27.48 69.87 26.86 C 74.71 28.02 79.22 30.47 84.23 30.82 C 81.78 29.54 79.18 28.56 76.69 27.34 C 82.15 26.64 87.29 28.82 92.25 30.77 C 96.82 32.63 101.22 34.85 105.58 37.17 C 102.51 33.35 97.60 32.01 93.77 29.16 C 100.42 30.36 106.49 33.46 112.22 36.91 C 111.46 35.89 109.93 33.85 109.16 32.83 C 115.07 35.58 120.78 39.70 123.33 45.92 C 124.13 48.92 123.72 52.06 123.55 55.12 C 127.95 55.69 131.84 59.43 131.49 64.07 C 130.76 74.11 128.90 84.05 127.25 93.98 C 126.26 92.71 125.62 90.98 124.02 90.35 C 120.37 91.54 119.40 95.66 118.88 99.01 C 117.04 108.57 120.84 117.91 120.87 127.45 C 120.44 127.64 119.57 128.02 119.13 128.21 L 118.74 128.96 C 118.81 135.06 117.08 141.15 113.34 146.02 C 113.78 143.65 114.29 141.30 114.71 138.93 C 112.84 141.75 110.93 145.45 111.03 148.88 C 111.98 148.60 112.77 148.04 113.39 147.20 C 121.73 147.36 130.08 147.24 138.43 147.29 C 138.61 106.32 138.47 65.35 138.50 24.38 C 115.69 24.10 92.86 24.56 70.06 24.25 C 54.66 24.68 39.21 23.86 23.80 24.56 C 24.36 30.37 23.86 36.20 23.99 42.02 C 23.89 77.08 24.17 112.16 23.87 147.21 C 32.62 147.14 41.40 147.59 50.14 147.03 C 51.21 148.17 52.27 149.32 53.31 150.49 C 42.29 150.74 31.27 150.59 20.25 150.62 C 20.32 107.31 20.21 64.00 20.30 20.69 M 58.14 37.65 C 58.78 40.66 60.72 43.20 63.27 44.85 C 69.95 49.14 77.76 50.96 85.18 53.52 C 84.73 53.05 83.82 52.11 83.37 51.64 C 75.14 46.69 64.59 45.35 58.14 37.65 M 79.36 39.41 C 83.29 41.66 87.62 43.12 91.42 45.61 C 95.03 47.61 98.01 50.48 101.22 53.03 C 96.96 45.18 87.91 40.62 79.36 39.41 M 98.27 42.78 C 98.57 44.49 100.64 46.07 102.30 46.34 C 102.10 44.67 99.97 42.73 98.27 42.78 M 77.13 43.42 C 82.51 46.28 88.03 48.88 93.24 52.06 C 92.08 49.34 89.23 48.16 86.84 46.79 C 83.77 45.29 80.70 43.26 77.13 43.42 M 56.77 45.25 C 58.67 48.09 61.45 50.11 64.43 51.69 C 71.07 55.31 78.19 58.24 85.53 60.03 C 76.64 53.81 65.64 51.52 56.77 45.25 M 43.83 55.27 C 46.06 59.08 49.94 61.64 54.20 62.64 C 51.08 59.74 46.95 58.21 43.83 55.27 M 105.54 67.41 C 91.34 67.92 77.18 71.52 62.92 69.69 C 59.22 69.50 54.82 67.67 51.74 70.69 C 48.44 74.23 48.74 79.46 47.87 83.93 C 47.39 90.37 45.17 97.35 48.26 103.46 C 50.11 107.66 54.30 109.91 58.33 111.57 C 58.42 112.06 58.59 113.04 58.68 113.52 C 62.55 111.33 66.41 108.25 71.05 108.21 C 73.25 108.05 74.80 109.65 76.17 111.12 C 77.62 109.96 78.90 108.11 80.99 108.27 C 86.06 108.06 89.59 112.56 94.21 113.86 C 99.88 113.14 105.19 110.19 109.34 106.34 C 116.34 99.48 114.53 86.62 106.58 81.30 C 107.80 78.87 108.88 76.39 109.85 73.85 C 108.81 71.86 107.92 69.79 107.09 67.70 C 108.20 67.33 109.31 66.96 110.42 66.59 C 111.03 64.21 114.75 63.46 113.55 60.66 C 110.62 62.60 108.26 65.22 105.54 67.41 M 70.67 117.66 C 70.11 117.66 68.99 117.66 68.42 117.67 C 65.81 119.55 62.44 119.38 59.72 121.00 C 61.25 121.32 62.83 121.61 64.14 122.52 C 67.77 123.18 72.84 122.06 73.05 117.58 L 71.06 117.99 L 71.15 116.15 C 71.03 116.53 70.79 117.28 70.67 117.66 M 80.05 117.91 C 79.97 122.03 84.90 122.15 87.81 122.46 C 87.59 120.53 86.32 119.24 84.85 118.14 C 84.44 118.57 83.62 119.45 83.20 119.89 C 82.41 119.39 80.84 118.41 80.05 117.91 M 110.22 119.66 C 110.34 124.00 110.91 128.31 111.58 132.59 C 111.98 129.57 111.74 126.52 111.40 123.52 C 111.87 123.38 112.82 123.12 113.30 122.99 C 112.31 121.84 111.29 120.73 110.22 119.66 M 57.52 133.58 C 57.31 135.65 57.24 137.74 56.57 139.73 C 56.00 138.98 54.87 137.49 54.30 136.75 C 54.80 139.18 55.57 141.54 56.56 143.81 C 56.68 143.11 56.91 141.70 57.03 141.00 C 57.63 141.24 58.84 141.71 59.45 141.95 C 58.85 139.15 58.29 136.34 57.52 133.58 Z" />
<path fill="#020100" opacity="1.00" d=" M 161.74 38.00 C 162.16 31.99 170.88 30.31 174.35 34.73 C 173.77 35.05 172.61 35.69 172.03 36.01 C 170.52 35.61 168.92 34.51 167.35 35.33 C 164.87 36.30 164.94 39.81 166.36 41.64 C 168.71 43.61 171.99 39.83 174.18 42.29 C 173.70 43.81 172.09 44.31 170.76 44.82 C 166.58 47.00 160.89 42.69 161.74 38.00 Z" />
<path fill="#020100" opacity="1.00" d=" M 180.78 32.78 C 183.77 31.32 186.95 32.85 189.60 34.30 C 190.19 36.31 191.32 38.45 190.47 40.57 C 189.05 45.65 181.41 46.61 178.26 42.69 C 175.24 39.76 176.88 34.05 180.78 32.78 M 181.60 35.84 C 179.61 37.58 180.14 41.72 183.04 42.17 C 185.04 42.91 187.15 40.92 187.26 38.94 C 187.74 36.14 183.97 33.67 181.74 35.72 C 181.70 35.75 181.64 35.81 181.60 35.84 Z" />
<path fill="#020100" opacity="1.00" d=" M 194.51 32.75 C 197.60 32.88 200.84 32.30 203.83 33.24 C 205.97 34.14 205.68 36.69 205.68 38.58 C 205.10 39.02 203.96 39.90 203.39 40.35 L 203.32 40.39 C 203.35 40.42 203.39 40.47 203.41 40.49 C 204.54 41.93 205.69 43.34 206.80 44.80 C 205.41 44.68 203.94 44.92 202.62 44.45 C 201.32 42.98 200.16 41.39 198.78 39.98 C 198.42 41.56 198.09 43.14 197.79 44.73 C 196.96 44.73 195.31 44.73 194.48 44.72 C 194.49 40.73 194.49 36.74 194.51 32.75 M 198.00 35.09 C 198.06 35.84 198.18 37.33 198.24 38.08 C 197.78 39.83 201.34 39.60 200.62 37.91 L 202.19 38.15 C 202.94 35.06 200.21 35.10 198.00 35.09 Z" />
<path fill="#020100" opacity="1.00" d=" M 208.45 35.28 C 208.52 34.42 208.60 33.56 208.69 32.71 C 212.60 32.77 216.51 32.74 220.42 32.76 C 221.02 35.91 218.00 35.20 216.00 35.38 C 216.02 38.54 216.01 41.71 215.92 44.87 C 214.86 44.80 213.80 44.72 212.75 44.64 C 212.75 41.51 212.75 38.37 212.74 35.24 C 211.30 35.25 209.87 35.26 208.45 35.28 Z" />
<path fill="#020100" opacity="1.00" d=" M 223.53 32.76 C 226.92 32.69 230.31 32.66 233.69 33.02 C 233.63 33.58 233.50 34.69 233.43 35.25 C 231.21 35.25 228.99 35.27 226.77 35.31 C 226.25 38.98 230.65 36.99 232.70 37.52 C 232.73 38.07 232.78 39.17 232.80 39.72 C 230.87 39.74 228.93 39.75 227.00 39.77 C 227.00 40.39 227.00 41.62 227.00 42.24 C 229.25 42.25 231.50 42.25 233.76 42.26 C 233.76 42.88 233.76 44.12 233.76 44.74 C 230.37 44.74 226.98 44.75 223.60 44.81 C 223.44 40.79 223.48 36.77 223.53 32.76 Z" />
<path fill="#020100" opacity="1.00" d=" M 243.23 33.29 C 244.14 33.11 245.97 32.75 246.89 32.57 C 247.85 34.06 248.84 35.54 249.85 37.00 C 250.24 36.43 251.03 35.30 251.42 34.73 L 251.53 34.58 L 251.63 34.41 C 252.47 32.60 253.97 32.00 256.14 32.61 C 254.76 35.10 252.86 37.28 251.61 39.84 C 251.44 41.48 251.46 43.13 251.44 44.77 C 250.32 44.80 249.21 44.84 248.11 44.87 C 247.95 43.04 247.91 41.20 247.62 39.40 C 246.42 37.18 244.68 35.33 243.23 33.29 Z" />
<path fill="#020100" opacity="1.00" d=" M 266.00 32.77 C 268.94 32.84 271.95 32.39 274.84 33.04 C 276.96 34.10 276.81 36.65 275.67 38.37 C 276.91 39.82 277.77 41.68 276.43 43.41 C 273.46 45.65 269.48 44.49 266.05 44.78 C 265.98 40.78 265.99 36.77 266.00 32.77 M 269.22 35.27 C 269.24 35.87 269.29 37.05 269.31 37.64 C 271.23 37.61 273.33 37.70 273.47 35.24 C 272.05 35.24 270.63 35.26 269.22 35.27 M 269.51 39.68 C 269.42 40.33 269.24 41.62 269.15 42.27 C 270.16 42.27 272.17 42.26 273.18 42.26 C 273.38 41.72 273.79 40.63 273.99 40.09 C 272.50 39.92 271.00 39.78 269.51 39.68 Z" />
<path fill="#020100" opacity="1.00" d=" M 279.09 44.88 C 280.41 40.70 282.31 36.73 283.91 32.64 C 285.23 32.68 286.55 32.73 287.88 32.78 C 289.27 36.80 291.17 40.64 292.19 44.79 C 291.43 44.82 289.90 44.88 289.14 44.91 C 288.74 43.98 288.35 43.05 287.97 42.11 C 286.43 42.10 284.90 42.09 283.38 42.09 C 283.18 42.74 282.79 44.05 282.59 44.70 C 281.42 44.77 280.25 44.83 279.09 44.88 M 284.26 39.58 C 284.98 39.66 286.42 39.82 287.14 39.90 C 286.68 38.54 286.21 37.18 285.75 35.83 C 285.24 37.08 284.75 38.33 284.26 39.58 Z" />
<path fill="#020100" opacity="1.00" d=" M 295.49 44.64 C 295.49 40.66 295.42 36.68 295.62 32.71 C 298.64 32.87 301.82 32.31 304.73 33.27 C 306.65 34.11 306.48 36.38 306.70 38.10 C 306.11 38.65 304.92 39.75 304.33 40.30 C 305.47 41.73 306.60 43.17 307.73 44.62 C 306.32 44.67 304.92 44.71 303.53 44.75 C 302.31 43.42 301.49 39.98 299.17 40.85 C 298.99 42.22 298.85 43.59 298.74 44.97 C 297.65 44.86 296.57 44.75 295.49 44.64 M 298.84 35.13 C 298.92 35.86 299.08 37.31 299.15 38.03 C 300.84 39.07 304.17 38.07 303.15 35.59 C 301.72 35.37 300.28 35.22 298.84 35.13 Z" />
<path fill="#020100" opacity="1.00" d=" M 310.76 32.79 C 314.04 32.69 317.62 31.96 320.67 33.56 C 322.12 35.30 320.08 37.73 321.32 39.57 C 322.72 41.46 321.28 44.35 318.98 44.57 C 316.25 44.93 313.48 44.73 310.73 44.71 C 310.74 40.74 310.74 36.77 310.76 32.79 M 314.01 34.93 C 314.00 35.61 314.00 36.97 314.00 37.65 C 315.75 37.37 318.43 37.81 318.16 35.21 C 316.77 35.11 315.39 35.02 314.01 34.93 M 314.01 39.68 C 314.01 40.34 314.01 41.67 314.01 42.34 C 315.76 42.09 319.66 42.97 318.19 39.88 C 316.80 39.77 315.40 39.70 314.01 39.68 Z" />
<path fill="#020100" opacity="1.00" d=" M 328.90 32.70 C 330.20 32.69 331.51 32.68 332.82 32.68 C 334.16 36.77 336.04 40.66 337.58 44.68 C 336.72 44.67 334.99 44.66 334.13 44.66 C 333.48 41.68 330.68 41.90 328.27 42.15 C 327.87 43.11 327.48 44.07 327.09 45.03 C 326.33 44.98 324.82 44.88 324.06 44.84 C 325.34 40.66 327.33 36.77 328.90 32.70 M 329.61 39.78 C 331.69 41.51 332.97 37.49 330.87 36.69 C 329.46 36.63 328.95 38.79 329.61 39.78 Z" />
<path fill="#020100" opacity="1.00" d=" M 45.72 39.81 C 45.93 40.35 46.34 41.45 46.55 42.00 C 46.33 42.55 45.91 43.66 45.69 44.21 C 44.98 42.74 44.99 41.27 45.72 39.81 Z" />
<path fill="#020100" opacity="1.00" d=" M 169.10 53.58 C 174.52 54.90 180.63 52.17 185.51 55.65 C 188.92 58.40 188.76 64.54 185.04 66.99 C 182.18 69.24 178.38 68.68 175.00 68.78 C 175.00 70.86 175.00 72.94 175.00 75.02 C 173.01 75.00 171.03 74.98 169.05 74.95 C 169.00 67.82 168.91 60.70 169.10 53.58 M 175.01 57.73 C 175.00 60.00 175.00 62.28 175.00 64.55 C 177.39 64.42 181.58 65.15 181.89 61.79 C 182.76 57.80 177.69 57.67 175.01 57.73 Z" />
<path fill="#020100" opacity="1.00" d=" M 215.14 53.60 C 220.37 54.11 225.62 54.11 230.85 53.60 C 230.91 54.99 230.97 56.38 231.03 57.77 C 227.74 57.73 224.44 57.74 221.15 57.81 C 221.08 59.19 221.02 60.58 220.96 61.96 C 223.91 61.97 226.86 62.08 229.80 62.30 C 229.76 63.73 229.72 65.16 229.68 66.59 C 226.82 66.33 223.94 66.22 221.07 66.20 C 221.05 67.76 221.05 69.32 221.06 70.88 C 224.38 71.02 227.70 71.02 231.02 71.00 C 230.99 72.26 230.97 73.52 230.94 74.78 C 225.63 74.73 220.32 74.72 215.01 74.80 C 215.06 67.73 214.84 60.66 215.14 53.60 Z" />
<path fill="#020100" opacity="1.00" d=" M 253.23 53.95 C 255.66 53.84 258.08 53.86 260.51 53.84 C 260.50 60.88 260.52 67.92 260.49 74.96 C 258.47 74.84 256.44 74.74 254.42 74.65 C 254.20 70.67 254.29 66.69 254.10 62.71 C 252.10 65.50 250.61 68.60 249.30 71.76 C 247.86 71.66 246.42 71.56 244.99 71.46 C 243.77 68.23 242.13 65.19 240.41 62.22 C 240.12 61.72 239.84 61.22 239.57 60.72 C 239.44 65.47 239.51 70.23 239.41 74.99 C 238.01 74.88 236.62 74.76 235.23 74.66 C 235.28 67.68 235.20 60.71 235.28 53.74 C 237.55 53.74 239.81 53.75 242.09 53.76 C 243.85 57.14 245.48 60.59 247.31 63.94 C 247.62 63.88 248.25 63.77 248.57 63.71 C 250.20 60.50 251.55 57.14 253.23 53.95 Z" />
<path fill="#020100" opacity="1.00" d=" M 301.28 53.46 C 303.50 53.63 305.75 53.59 307.96 53.93 C 310.43 57.20 311.49 61.30 313.92 64.61 C 316.16 61.16 317.32 57.04 319.98 53.87 C 322.14 53.64 324.31 53.74 326.48 53.73 C 326.38 60.72 326.83 67.74 326.17 74.71 C 324.36 74.78 322.55 74.85 320.75 74.95 C 320.72 70.58 320.78 66.22 320.74 61.85 C 318.64 64.85 317.32 68.30 315.34 71.36 C 314.33 72.03 312.69 72.03 311.69 71.39 C 309.64 68.33 308.22 64.89 306.08 61.88 C 305.94 66.26 306.02 70.64 306.00 75.02 C 304.40 75.00 302.81 74.97 301.22 74.95 C 301.30 67.79 301.20 60.63 301.28 53.46 Z" />
<path fill="#020100" opacity="1.00" d=" M 191.59 53.69 C 196.55 54.52 201.76 52.96 206.56 54.54 C 211.96 56.36 211.30 64.78 206.30 66.77 C 208.18 69.52 210.04 72.27 211.97 74.99 C 209.72 74.99 207.48 74.99 205.24 74.98 C 203.12 72.05 202.01 67.04 197.52 67.30 C 197.50 69.75 197.50 72.21 197.53 74.67 C 195.53 74.75 193.53 74.83 191.54 74.93 C 191.42 67.85 191.52 60.77 191.59 53.69 M 197.52 57.61 C 197.51 59.56 197.52 61.51 197.53 63.46 C 199.97 63.46 204.33 64.30 204.79 60.88 C 204.67 57.25 200.00 57.95 197.52 57.61 Z" />
<path fill="#020100" opacity="1.00" d=" M 266.15 53.74 C 268.10 53.74 270.05 53.75 272.00 53.76 C 272.00 60.84 272.00 67.93 272.00 75.01 C 270.07 75.00 268.14 74.98 266.22 74.96 C 266.24 67.89 266.34 60.81 266.15 53.74 Z" />
<path fill="#020100" opacity="1.00" d=" M 277.50 53.82 C 279.48 53.91 281.46 53.99 283.45 54.05 C 283.79 58.68 283.50 63.35 283.78 67.96 C 284.38 72.21 291.62 72.00 292.35 67.93 C 293.19 63.29 292.70 58.51 292.53 53.82 C 294.10 53.84 295.68 53.84 297.25 53.83 C 297.03 59.16 297.79 64.59 296.75 69.85 C 294.73 77.33 283.25 77.27 279.08 71.89 C 276.40 66.30 277.87 59.80 277.50 53.82 Z" />
<path fill="#020100" opacity="1.00" d=" M 199.59 98.49 C 202.65 93.55 206.25 88.96 209.70 84.28 C 212.58 86.33 215.50 88.31 218.50 90.18 L 218.18 88.03 C 224.88 88.04 231.58 87.86 238.27 88.09 C 238.28 88.55 238.31 89.47 238.32 89.93 C 233.54 89.83 228.49 90.59 223.87 89.51 C 223.24 88.27 221.72 88.39 221.09 89.55 C 220.43 89.77 219.09 90.22 218.42 90.45 C 223.67 93.54 228.47 97.30 233.54 100.68 C 241.34 106.17 249.46 111.22 256.99 117.09 C 262.54 113.71 268.37 110.57 273.11 106.06 C 277.29 102.54 274.37 96.00 278.23 92.23 C 282.51 85.50 294.37 86.36 297.13 93.99 C 299.40 98.32 297.22 103.63 293.70 106.55 C 293.78 107.02 293.96 107.95 294.04 108.42 C 297.14 107.19 300.55 107.85 303.35 109.50 C 303.40 109.53 303.49 109.58 303.53 109.61 C 307.41 112.05 309.36 117.19 307.60 121.50 C 305.29 128.66 295.25 130.78 289.62 126.35 C 288.17 125.48 286.82 124.13 285.02 124.16 C 280.14 124.08 275.43 125.71 270.65 126.49 C 277.94 130.63 284.69 135.65 291.59 140.41 C 295.11 142.53 296.10 147.55 294.04 151.01 C 291.22 155.34 284.54 156.87 280.47 153.41 C 271.59 146.69 262.32 140.47 253.58 133.58 L 253.44 131.88 C 237.08 139.81 221.50 149.30 205.03 157.04 C 204.89 154.91 207.08 154.20 208.51 153.24 C 209.81 152.53 211.11 151.81 212.37 151.03 C 214.62 149.78 216.91 148.60 219.23 147.49 L 219.44 147.39 L 219.61 147.28 C 228.76 141.70 238.51 137.01 246.96 130.35 C 244.74 129.09 245.03 126.93 247.19 126.05 C 247.29 127.18 247.49 129.43 247.59 130.56 C 249.61 128.72 250.24 125.99 251.76 123.83 C 256.07 121.25 260.59 118.79 263.73 114.72 C 251.66 120.18 240.98 128.11 230.43 136.00 C 228.46 136.82 226.51 137.72 224.83 139.04 C 221.73 140.81 218.29 141.79 214.94 142.95 C 209.52 144.76 204.21 146.97 198.60 148.13 C 201.17 145.74 204.35 144.21 207.40 142.54 C 216.71 137.35 226.03 132.14 235.81 127.90 C 237.30 127.18 238.98 126.57 239.73 124.95 C 237.41 124.97 235.46 123.79 234.61 121.62 C 234.14 121.74 233.21 121.99 232.74 122.11 L 232.95 120.41 C 234.33 120.68 235.63 120.22 236.91 119.78 C 236.56 119.39 235.85 118.59 235.50 118.19 C 234.20 118.96 233.03 119.92 231.84 120.84 C 231.09 119.87 230.13 119.23 228.95 118.92 L 229.72 117.09 C 229.16 117.30 228.03 117.71 227.47 117.92 C 225.47 115.37 222.36 114.20 219.94 112.18 C 219.37 110.68 219.03 109.12 218.60 107.58 C 218.64 108.56 218.72 110.52 218.76 111.50 C 217.53 110.55 216.47 109.43 215.54 108.20 C 215.29 108.29 214.78 108.49 214.53 108.59 C 213.74 107.89 212.94 107.21 212.13 106.54 C 212.19 106.10 212.29 105.23 212.35 104.79 C 211.72 105.04 210.46 105.55 209.83 105.81 C 210.15 105.05 210.80 103.53 211.13 102.77 C 210.32 103.19 208.69 104.03 207.88 104.44 L 208.54 102.38 C 207.93 102.57 206.73 102.94 206.12 103.13 C 206.29 101.57 206.41 100.01 206.49 98.44 C 206.23 99.45 205.97 100.47 205.72 101.48 C 203.74 100.35 201.66 99.42 199.59 98.49 M 278.92 98.25 C 278.91 98.37 278.91 98.62 278.91 98.74 C 278.90 104.45 286.19 108.16 290.93 105.04 C 295.24 102.61 296.59 95.76 292.41 92.54 C 287.73 88.02 278.94 91.76 278.92 98.25 M 210.28 95.21 C 210.81 95.76 210.81 95.76 210.28 95.21 M 214.17 98.34 C 214.85 98.67 214.85 98.67 214.17 98.34 M 209.28 100.23 C 209.88 100.70 209.88 100.70 209.28 100.23 M 223.20 105.29 C 223.78 105.78 223.78 105.78 223.20 105.29 M 274.60 109.64 C 269.97 112.81 266.16 117.05 263.14 121.77 C 269.65 121.90 276.33 121.93 282.56 119.73 C 285.10 118.87 285.91 116.22 287.01 114.06 C 288.30 111.39 290.82 109.41 293.73 108.80 C 292.49 108.23 291.10 107.15 289.74 108.47 C 289.68 108.48 289.54 108.52 289.48 108.53 C 284.59 110.53 279.02 106.19 274.60 109.64 M 228.28 110.31 C 228.81 110.87 228.81 110.87 228.28 110.31 M 294.22 111.23 C 289.07 113.05 287.46 120.58 291.91 124.02 C 296.07 127.96 303.55 125.39 304.97 120.04 C 306.82 114.21 299.53 108.43 294.22 111.23 M 253.08 124.59 C 252.44 126.21 252.94 126.77 254.59 126.30 C 255.24 124.67 254.74 124.10 253.08 124.59 M 256.30 133.25 C 257.08 134.82 260.15 134.64 261.80 134.66 C 261.48 132.76 257.83 132.52 256.30 133.25 M 262.30 134.36 L 261.87 135.58 C 264.48 137.43 267.39 139.00 269.36 141.60 C 269.26 141.05 269.05 139.94 268.95 139.39 C 266.64 137.84 264.42 136.15 262.30 134.36 M 269.55 141.97 C 275.29 143.78 278.75 149.62 284.67 151.04 C 280.33 147.33 275.16 144.69 271.10 140.64 C 270.58 141.08 270.06 141.52 269.55 141.97 Z" />
<path fill="#020100" opacity="1.00" d=" M 256.79 89.73 C 257.23 88.28 258.55 87.82 259.96 88.00 C 266.43 87.97 272.90 87.97 279.37 88.05 C 279.06 88.55 278.46 89.53 278.16 90.02 C 271.04 89.85 263.90 90.31 256.79 89.73 Z" />
<path fill="#020100" opacity="1.00" d=" M 183.08 88.74 C 189.13 88.75 195.19 88.74 201.25 88.75 L 201.26 90.00 C 195.15 89.99 189.05 90.04 182.95 89.96 L 183.08 88.74 Z" />
<path fill="#020100" opacity="1.00" d=" M 295.49 88.79 C 301.48 88.76 307.47 88.64 313.46 88.86 C 312.59 90.57 310.46 89.80 308.97 90.03 C 304.45 90.00 299.93 89.99 295.41 90.00 L 295.49 88.79 Z" />
</g>
<g id="#db9514ff">
<path fill="#db9514" opacity="1.00" d=" M 251.42 34.73 C 251.47 34.65 251.58 34.49 251.63 34.41 L 251.53 34.58 L 251.42 34.73 Z" />
<path fill="#db9514" opacity="1.00" d=" M 181.60 35.84 C 181.64 35.81 181.70 35.75 181.74 35.72 C 181.70 35.75 181.64 35.81 181.60 35.84 Z" />
<path fill="#db9514" opacity="1.00" d=" M 203.32 40.39 L 203.39 40.35 L 203.41 40.49 C 203.39 40.47 203.35 40.42 203.32 40.39 Z" />
<path fill="#db9514" opacity="1.00" d=" M 152.94 67.06 C 151.01 62.82 149.66 56.68 154.53 53.87 C 156.58 58.20 154.85 62.71 153.86 67.03 C 154.97 65.53 156.02 63.98 157.38 62.69 C 160.68 65.17 158.89 71.00 155.58 72.93 C 155.98 73.90 156.39 74.86 156.79 75.83 C 157.27 73.42 158.34 71.20 160.05 69.41 C 163.04 72.80 162.77 77.62 159.89 80.94 C 160.75 81.94 161.62 82.93 162.50 83.92 C 162.31 81.38 161.81 77.50 164.11 76.00 C 167.91 78.32 168.78 83.54 166.74 87.36 C 167.84 88.05 168.94 88.72 170.05 89.40 C 169.25 86.72 169.20 83.93 169.88 81.22 C 174.34 82.54 176.46 87.36 175.25 91.70 C 177.16 92.39 179.05 93.12 180.92 93.91 C 179.33 97.25 176.23 93.63 173.85 93.24 C 171.10 97.66 164.83 97.89 160.94 94.92 C 163.02 93.05 165.53 91.78 168.21 91.00 C 167.19 90.30 166.18 89.57 165.19 88.82 C 160.88 92.73 153.94 90.31 152.23 84.95 C 154.97 84.43 157.76 84.42 160.53 84.73 C 159.70 83.81 158.89 82.88 158.08 81.96 C 156.12 82.15 154.03 82.83 152.18 81.82 C 149.13 80.60 147.99 77.15 147.45 74.20 C 150.21 74.24 152.76 75.26 155.14 76.59 C 154.67 75.43 154.25 74.27 153.68 73.16 C 151.81 72.50 149.31 72.67 148.20 70.71 C 146.39 68.49 146.57 65.49 147.15 62.86 C 149.24 64.03 151.10 65.54 152.94 67.06 Z" />
<path fill="#db9514" opacity="1.00" d=" M 342.14 67.22 C 341.06 62.76 338.94 57.99 341.74 53.66 C 346.36 57.40 344.27 63.15 343.06 67.91 C 344.78 65.96 346.59 64.05 348.95 62.89 C 349.46 65.93 349.54 69.85 346.71 71.82 C 345.44 72.88 343.69 72.78 342.16 73.02 C 341.77 74.18 341.39 75.35 341.00 76.52 C 343.19 75.26 345.56 74.34 348.08 74.01 C 348.05 76.64 347.32 79.46 345.04 81.03 C 343.03 82.70 340.28 82.18 337.90 82.01 C 337.02 82.92 336.15 83.83 335.27 84.74 C 338.03 84.43 340.82 84.51 343.57 84.99 C 342.19 87.91 339.60 90.89 336.09 90.78 C 334.07 91.03 332.39 89.76 330.74 88.83 C 329.84 89.49 328.88 90.09 328.16 90.94 C 330.59 92.07 333.00 93.27 335.14 94.90 C 331.21 97.79 325.03 97.67 322.23 93.29 C 320.07 93.88 318.04 95.57 315.74 95.31 C 314.81 92.64 319.16 92.82 320.80 91.75 C 320.76 89.86 320.64 87.96 320.85 86.07 C 321.72 83.73 323.95 82.36 325.79 80.84 C 326.80 83.62 327.06 86.57 326.03 89.40 C 327.08 88.69 328.15 87.98 329.22 87.28 C 327.00 83.17 328.48 78.32 332.16 75.65 C 333.52 78.22 334.41 81.15 333.44 84.01 C 334.18 82.66 336.77 81.39 335.17 79.76 C 332.66 76.59 333.67 72.33 336.00 69.37 C 337.63 71.27 338.78 73.52 338.98 76.05 C 339.40 75.08 339.80 74.10 340.23 73.13 C 337.27 70.83 336.09 66.87 337.53 63.35 C 339.86 62.22 340.83 65.91 342.14 67.22 Z" />
<path fill="#db9514" opacity="1.00" d=" M 247.73 81.10 C 248.72 82.91 249.57 84.78 250.40 86.67 C 252.32 86.73 254.23 86.79 256.16 86.90 C 254.76 88.23 253.32 89.52 251.99 90.91 C 252.28 92.86 252.81 94.76 253.16 96.71 C 251.34 95.70 249.55 94.63 247.79 93.54 C 246.04 94.55 244.31 95.60 242.57 96.61 C 242.89 94.69 243.30 92.79 243.75 90.90 C 242.09 89.55 240.42 88.17 239.25 86.36 C 241.22 86.58 243.19 86.75 245.18 86.85 C 246.01 84.92 246.85 83.00 247.73 81.10 Z" />
<path fill="#db9514" opacity="1.00" d=" M 210.28 95.21 C 210.81 95.76 210.81 95.76 210.28 95.21 Z" />
<path fill="#db9514" opacity="1.00" d=" M 214.17 98.34 C 214.85 98.67 214.85 98.67 214.17 98.34 Z" />
<path fill="#db9514" opacity="1.00" d=" M 278.91 98.74 C 278.91 98.62 278.91 98.37 278.92 98.25 L 278.91 98.74 Z" />
<path fill="#db9514" opacity="1.00" d=" M 223.20 105.29 C 223.78 105.78 223.78 105.78 223.20 105.29 Z" />
<path fill="#db9514" opacity="1.00" d=" M 289.48 108.53 C 289.54 108.52 289.68 108.48 289.74 108.47 C 289.68 108.48 289.54 108.52 289.48 108.53 Z" />
<path fill="#db9514" opacity="1.00" d=" M 303.35 109.50 C 303.40 109.53 303.49 109.58 303.53 109.61 C 303.49 109.58 303.40 109.53 303.35 109.50 Z" />
<path fill="#db9514" opacity="1.00" d=" M 119.13 128.21 C 119.57 128.02 120.44 127.64 120.87 127.45 L 120.84 128.30 C 120.42 128.28 119.56 128.23 119.13 128.21 Z" />
<path fill="#db9514" opacity="1.00" d=" M 224.83 139.04 C 226.51 137.72 228.46 136.82 230.43 136.00 C 224.45 141.07 218.07 145.65 212.37 151.03 C 211.11 151.81 209.81 152.53 208.51 153.24 C 213.52 148.03 219.74 144.16 224.83 139.04 Z" />
<path fill="#db9514" opacity="1.00" d=" M 219.41 147.40 L 219.61 147.28 L 219.44 147.39 L 219.23 147.49 L 219.41 147.40 Z" />
</g>
</svg>
