<?xml version="1.0" encoding="UTF-8" ?>
<!DOCTYPE svg PUBLIC "-//W3C//DTD SVG 1.1//EN" "http://www.w3.org/Graphics/SVG/1.1/DTD/svg11.dtd">
<svg width="353pt" height="190pt" viewBox="0 0 353 190" version="1.1" xmlns="http://www.w3.org/2000/svg">
<g id="#020101ff">
<path fill="#020101" opacity="1.00" d=" M 27.50 21.50 C 65.08 21.50 102.67 21.48 140.25 21.51 C 140.31 29.05 140.15 36.58 140.29 44.12 C 140.13 46.96 142.30 49.02 143.78 51.19 C 147.43 55.95 150.38 61.20 153.09 66.54 C 150.39 64.54 147.70 62.51 144.69 60.99 C 150.11 66.23 154.85 72.28 157.49 79.41 C 159.58 84.68 160.32 90.35 160.74 95.97 C 159.12 92.91 157.64 89.78 155.94 86.76 C 156.92 90.82 158.77 94.70 158.96 98.93 C 159.63 110.51 156.63 122.49 150.01 132.06 C 153.52 121.92 155.15 110.77 152.35 100.25 C 151.75 105.18 152.35 110.19 151.46 115.08 C 150.24 122.28 147.34 129.02 145.21 135.96 C 145.19 130.87 145.88 125.50 143.25 120.88 C 143.37 125.21 144.19 129.70 142.79 133.92 C 140.02 142.45 133.84 149.60 126.25 154.25 C 122.09 156.70 118.23 159.66 113.84 161.70 C 116.41 159.32 119.47 157.54 121.98 155.10 C 127.39 149.64 131.30 142.89 134.18 135.81 C 131.53 140.24 128.75 144.67 124.90 148.19 C 129.44 140.17 131.60 130.81 130.11 121.63 C 129.01 128.77 128.81 136.43 124.73 142.68 C 121.79 147.67 116.72 150.71 112.69 154.69 C 108.40 158.72 105.05 163.78 103.42 169.46 C 99.82 163.38 92.32 163.05 86.49 160.45 C 81.18 157.65 80.37 151.22 79.11 145.98 C 78.04 140.75 75.19 136.16 72.00 131.97 C 74.06 135.90 76.03 139.90 77.18 144.21 C 75.05 141.91 72.94 139.57 70.60 137.47 C 73.87 142.88 76.22 148.99 75.48 155.43 C 74.61 153.96 73.76 152.47 72.92 150.98 C 57.78 151.02 42.63 151.00 27.49 150.99 C 27.51 107.83 27.49 64.66 27.50 21.50 M 32.00 26.00 C 32.00 66.08 32.00 106.17 32.00 146.25 C 44.42 146.23 56.83 146.30 69.25 146.21 C 63.99 141.20 56.38 139.00 52.29 132.73 C 49.14 128.36 48.82 122.84 48.38 117.66 C 47.60 126.78 47.46 136.48 52.23 144.64 C 46.03 141.26 44.31 133.99 43.39 127.55 C 42.20 131.84 42.71 136.27 43.09 140.63 C 41.91 138.53 40.86 136.36 40.20 134.04 C 37.62 124.94 36.16 115.42 36.99 105.95 C 37.28 102.38 38.40 98.96 38.84 95.42 C 35.73 101.76 35.32 108.89 34.54 115.78 C 31.65 108.87 33.00 100.94 34.55 93.84 C 38.23 81.84 45.15 71.12 52.17 60.83 C 45.61 64.52 42.95 71.73 39.17 77.77 C 42.47 64.18 45.81 49.59 55.74 39.12 C 57.00 44.61 57.88 50.20 59.66 55.56 C 61.04 59.67 64.38 62.77 68.05 64.90 C 71.09 66.83 74.97 67.94 76.57 71.50 C 79.97 69.14 83.75 66.55 88.12 67.02 C 91.15 66.94 93.11 69.47 95.07 71.37 C 97.19 69.35 99.73 67.07 102.91 67.52 C 107.99 67.96 110.98 73.31 116.02 73.71 C 120.90 73.12 125.96 71.00 128.92 66.93 C 133.49 58.60 133.60 48.78 133.10 39.53 C 133.65 40.03 134.76 41.04 135.32 41.54 C 135.22 36.36 135.19 31.18 135.36 26.00 C 100.91 26.00 66.45 26.00 32.00 26.00 M 79.86 82.78 C 77.55 83.38 75.13 83.27 72.77 83.48 C 75.34 85.79 78.56 87.43 82.12 86.78 C 85.49 87.08 87.43 84.03 88.93 81.53 C 86.65 82.23 84.38 82.95 82.08 83.61 C 83.90 81.87 85.80 80.23 87.59 78.46 C 85.03 79.92 82.69 81.85 79.86 82.78 M 101.63 79.15 C 102.93 81.07 104.31 82.92 105.65 84.81 C 102.59 83.79 99.95 81.98 97.55 79.88 C 98.40 82.01 99.27 84.44 101.49 85.52 C 104.68 87.61 108.67 86.77 112.06 85.72 C 108.10 84.37 104.64 82.03 101.63 79.15 M 144.41 83.27 C 145.57 89.22 147.34 95.07 147.87 101.13 C 148.26 106.21 147.91 111.31 147.60 116.40 C 150.60 107.32 149.28 97.70 147.89 88.47 C 152.34 92.27 154.09 97.96 155.94 103.29 C 155.35 99.21 154.86 94.95 152.72 91.34 C 150.76 87.92 147.54 85.53 144.41 83.27 M 55.18 123.95 C 56.04 119.47 56.74 114.94 58.02 110.55 C 60.18 115.41 61.84 120.47 63.93 125.37 C 62.23 115.02 58.51 104.98 58.50 94.37 C 57.02 99.24 56.27 104.27 55.50 109.29 C 52.78 101.66 53.19 93.33 54.46 85.46 C 49.63 97.79 51.65 111.55 55.18 123.95 M 79.01 131.32 C 80.53 137.16 83.01 142.81 83.27 148.92 C 83.57 152.19 83.39 156.36 86.63 158.27 C 91.02 160.47 96.32 159.76 100.58 162.38 C 101.79 157.88 103.99 153.60 107.40 150.37 C 108.49 149.14 110.08 148.33 110.83 146.82 C 105.96 150.16 101.95 154.73 99.71 160.23 C 96.09 158.50 92.01 158.18 88.31 156.73 C 85.68 155.65 85.42 152.52 85.03 150.09 C 84.15 143.55 82.26 137.09 79.01 131.32 Z" />
<path fill="#020101" opacity="1.00" d=" M 260.04 64.51 C 260.71 64.55 262.05 64.65 262.72 64.70 C 262.69 67.61 262.68 70.52 262.66 73.44 C 265.05 73.76 268.92 72.62 268.56 76.43 C 265.68 76.49 262.81 76.45 259.93 76.33 C 259.91 72.39 259.91 68.45 260.04 64.51 Z" />
<path fill="#020101" opacity="1.00" d=" M 313.13 64.64 C 315.99 64.63 318.85 64.63 321.71 64.61 C 321.84 65.17 322.08 66.28 322.21 66.83 C 320.01 66.93 317.82 67.02 315.63 67.09 C 315.65 67.64 315.67 68.74 315.69 69.29 C 317.42 69.29 319.15 69.29 320.89 69.29 C 320.92 69.78 320.99 70.75 321.02 71.24 C 318.88 71.58 316.12 71.05 314.78 73.26 C 317.31 73.99 320.86 72.53 322.69 74.93 C 320.14 77.19 316.28 76.04 313.15 76.31 C 313.13 72.42 313.17 68.53 313.13 64.64 Z" />
<path fill="#020101" opacity="1.00" d=" M 186.42 64.64 C 187.11 64.64 188.47 64.63 189.15 64.62 C 190.90 68.58 192.72 72.54 193.81 76.74 C 191.98 76.30 190.64 75.09 189.52 73.65 C 188.40 73.64 187.28 73.64 186.17 73.64 C 185.06 75.10 183.58 76.11 181.81 76.60 C 183.13 72.54 184.87 68.62 186.42 64.64 M 189.20 70.84 C 188.89 70.33 188.27 69.31 187.97 68.80 C 184.87 69.04 187.78 73.79 189.20 70.84 Z" />
<path fill="#020101" opacity="1.00" d=" M 198.75 64.58 C 202.11 64.57 205.74 64.22 208.57 66.43 C 208.52 67.33 208.42 69.13 208.37 70.03 C 207.91 70.50 206.98 71.43 206.52 71.90 C 207.49 73.50 208.46 75.11 209.36 76.75 C 205.99 76.50 204.13 73.61 201.82 71.57 C 201.64 73.38 201.47 75.20 201.29 77.02 C 200.71 76.76 199.55 76.24 198.97 75.98 C 198.50 72.20 198.80 68.38 198.75 64.58 M 201.41 67.16 C 201.45 67.82 201.53 69.13 201.57 69.79 C 202.93 69.73 204.28 69.67 205.64 69.61 C 205.50 68.75 205.35 67.88 205.21 67.02 C 203.94 67.06 202.67 67.11 201.41 67.16 Z" />
<path fill="#020101" opacity="1.00" d=" M 214.10 64.60 C 217.05 64.85 220.61 63.80 223.01 66.04 C 224.63 67.92 223.11 70.32 222.18 72.13 C 222.90 73.60 223.61 75.08 224.29 76.57 C 221.26 76.11 219.45 73.62 217.49 71.56 C 217.32 72.99 217.16 74.41 217.00 75.83 C 216.27 75.85 214.82 75.89 214.10 75.91 C 214.13 72.14 214.13 68.37 214.10 64.60 M 217.13 66.75 C 217.14 67.52 217.18 69.06 217.20 69.83 C 218.56 69.72 219.92 69.61 221.28 69.48 C 220.97 67.28 219.00 66.95 217.13 66.75 Z" />
<path fill="#020101" opacity="1.00" d=" M 229.43 64.63 C 232.38 64.63 235.34 64.63 238.30 64.63 C 238.28 65.24 238.26 66.45 238.25 67.05 C 236.28 67.02 234.32 66.99 232.35 66.96 C 232.35 67.54 232.35 68.71 232.35 69.29 C 234.07 69.29 235.81 69.30 237.54 69.31 C 237.52 69.85 237.47 70.93 237.44 71.47 C 235.74 71.46 234.04 71.45 232.34 71.44 C 232.30 71.98 232.24 73.05 232.20 73.59 C 234.22 73.59 236.23 73.58 238.25 73.57 C 238.26 74.26 238.27 75.64 238.28 76.33 C 235.35 76.34 232.42 76.41 229.49 76.42 C 229.44 72.49 229.45 68.56 229.43 64.63 Z" />
<path fill="#020101" opacity="1.00" d=" M 245.02 74.94 C 241.29 71.49 243.78 64.42 248.98 64.34 C 250.80 64.18 255.40 65.77 252.70 67.93 C 251.17 67.67 249.63 66.80 248.05 67.18 C 245.57 68.38 245.47 72.85 248.27 73.71 C 249.68 74.28 251.08 73.24 252.44 72.92 C 250.85 72.09 248.96 71.54 248.14 69.76 C 250.15 69.64 252.17 69.59 254.20 69.55 C 254.21 71.45 254.22 73.34 254.24 75.24 C 251.31 76.38 247.57 77.47 245.02 74.94 Z" />
<path fill="#020101" opacity="1.00" d=" M 274.50 65.62 C 277.73 62.96 283.34 64.74 284.06 68.97 C 285.50 73.44 280.39 78.03 276.07 76.19 C 271.74 74.78 270.93 68.24 274.50 65.62 M 276.37 67.60 C 274.84 68.61 274.79 71.00 275.60 72.49 C 276.72 74.59 280.41 74.24 281.06 71.91 C 282.67 69.25 278.99 65.37 276.37 67.60 Z" />
<path fill="#020101" opacity="1.00" d=" M 296.84 64.56 C 298.95 64.60 301.07 64.54 303.17 64.81 C 307.45 65.62 309.04 71.89 305.71 74.68 C 303.35 77.00 299.80 76.16 296.84 76.33 C 296.74 72.41 296.63 68.48 296.84 64.56 M 299.69 66.55 C 299.63 68.88 299.61 71.22 299.59 73.56 C 300.55 73.57 302.48 73.59 303.44 73.60 C 303.92 72.11 304.82 70.58 304.38 68.96 C 303.35 67.35 301.29 67.20 299.69 66.55 Z" />
<path fill="#020101" opacity="1.00" d=" M 176.47 112.71 C 176.53 102.70 176.48 92.69 176.50 82.68 C 182.28 82.77 188.15 81.82 193.86 83.03 C 197.52 83.81 200.59 87.18 200.25 91.05 C 200.10 93.65 197.88 95.25 196.13 96.86 C 197.92 97.93 200.22 98.82 200.85 101.04 C 202.60 105.26 200.00 110.36 195.67 111.65 C 189.49 113.69 182.85 112.48 176.47 112.71 M 184.22 88.26 C 184.21 90.35 184.21 92.45 184.22 94.55 C 187.04 94.22 191.49 95.43 192.68 91.92 C 193.13 87.21 187.17 88.49 184.22 88.26 M 184.22 99.85 C 184.22 102.21 184.23 104.57 184.24 106.94 C 186.91 106.81 189.67 107.07 192.25 106.21 C 193.93 105.08 194.16 102.57 193.06 100.96 C 190.37 99.48 187.16 100.02 184.22 99.85 Z" />
<path fill="#020101" opacity="1.00" d=" M 215.70 82.54 C 218.22 82.52 220.73 82.56 223.24 82.60 C 227.32 92.66 231.32 102.74 235.45 112.77 C 232.74 112.77 230.03 112.77 227.32 112.75 C 226.57 110.61 225.83 108.46 225.12 106.30 C 221.15 105.69 217.12 105.74 213.15 106.29 C 212.38 108.46 211.59 110.61 210.81 112.77 C 208.31 112.77 205.82 112.77 203.32 112.76 C 207.51 102.71 211.48 92.57 215.70 82.54 M 215.48 100.36 C 217.89 100.36 220.30 100.36 222.72 100.37 C 221.54 97.11 220.33 93.86 219.12 90.61 C 217.84 93.83 216.66 97.10 215.48 100.36 Z" />
<path fill="#020101" opacity="1.00" d=" M 240.45 112.74 C 240.30 102.69 240.48 92.64 240.50 82.58 C 247.72 83.37 256.40 80.23 262.35 85.73 C 266.76 90.15 264.45 97.78 259.27 100.52 C 262.09 104.45 264.71 108.52 267.20 112.66 C 264.36 112.75 261.51 112.77 258.67 112.75 C 256.59 109.05 254.34 105.44 252.18 101.79 C 250.70 101.79 249.22 101.80 247.75 101.81 C 247.87 105.45 247.91 109.08 247.93 112.72 C 245.44 112.76 242.94 112.76 240.45 112.74 M 247.87 88.25 C 247.90 90.92 247.91 93.59 247.92 96.26 C 250.44 96.08 253.15 96.48 255.51 95.39 C 257.94 93.96 257.80 90.00 255.18 88.85 C 252.82 88.11 250.30 88.38 247.87 88.25 Z" />
<path fill="#020101" opacity="1.00" d=" M 272.80 82.63 C 279.54 83.24 287.22 80.67 293.20 84.80 C 297.27 87.96 296.08 94.23 292.05 96.88 C 293.82 98.02 296.00 99.12 296.54 101.37 C 298.08 105.72 295.17 110.56 290.86 111.82 C 284.95 113.58 278.68 112.48 272.61 112.76 C 272.56 102.72 272.33 92.66 272.80 82.63 M 279.76 88.23 C 279.76 90.34 279.77 92.45 279.78 94.56 C 282.66 94.27 288.53 95.43 288.26 90.96 C 287.66 87.06 282.52 88.74 279.76 88.23 M 279.76 106.90 C 283.34 106.91 290.44 107.67 289.29 101.97 C 287.14 98.96 282.91 100.22 279.78 99.84 C 279.77 102.19 279.77 104.54 279.76 106.90 Z" />
<path fill="#020101" opacity="1.00" d=" M 298.93 112.70 C 303.16 102.68 307.07 92.53 311.43 82.57 C 313.90 82.61 316.38 82.63 318.85 82.66 C 323.01 92.65 326.92 102.73 331.10 112.71 C 328.38 112.76 325.66 112.77 322.95 112.77 C 322.10 110.43 321.21 108.11 320.31 105.79 C 316.54 105.82 312.78 105.81 309.02 105.81 C 308.10 108.13 307.19 110.45 306.28 112.78 C 303.83 112.77 301.37 112.75 298.93 112.70 M 311.01 100.34 C 313.49 100.36 315.97 100.36 318.46 100.36 C 317.24 97.16 316.00 93.98 314.88 90.74 C 313.52 93.92 312.23 97.12 311.01 100.34 Z" />
<path fill="#020101" opacity="1.00" d=" M 252.48 115.20 C 253.05 116.54 253.62 117.89 254.19 119.24 C 255.63 119.32 257.08 119.40 258.53 119.49 C 257.47 120.60 256.40 121.70 255.34 122.80 C 255.60 123.82 256.12 125.87 256.38 126.89 C 255.03 126.15 253.68 125.42 252.34 124.69 C 251.06 125.41 249.78 126.13 248.50 126.85 C 248.75 125.83 249.23 123.79 249.48 122.77 C 248.39 121.66 247.30 120.55 246.22 119.44 C 247.23 119.39 249.27 119.28 250.28 119.23 C 251.01 117.88 251.74 116.54 252.48 115.20 Z" />
<path fill="#020101" opacity="1.00" d=" M 186.56 121.98 C 189.31 121.21 192.17 120.82 195.03 120.84 C 208.70 120.87 222.37 120.87 236.04 120.84 C 238.84 120.84 241.63 121.22 244.33 122.00 C 242.94 122.64 241.48 123.00 239.96 123.08 C 223.66 123.30 207.35 122.81 191.05 123.12 C 189.47 123.10 187.97 122.72 186.56 121.98 Z" />
<path fill="#020101" opacity="1.00" d=" M 260.42 122.04 C 269.45 119.97 278.79 121.11 287.96 121.11 C 294.62 120.72 301.29 120.90 307.97 120.84 C 311.52 120.86 315.26 120.82 318.52 122.46 C 312.40 123.59 306.17 122.93 300.00 123.10 C 288.34 122.86 276.67 123.28 265.01 123.09 C 263.41 123.06 261.90 122.56 260.42 122.04 Z" />
</g>
</svg>
